<svg xmlns="http://www.w3.org/2000/svg" width="445" height="372" viewBox="0 0 445 372" font-family="ui-sans-serif,-apple-system,BlinkMacSystemFont,'Segoe UI',Helvetica,Arial,sans-serif">
<rect width="445" height="372" rx="14" fill="#ffffff" stroke="#e7e5e4"/>
<text x="24" y="34" font-size="15" font-weight="600" fill="#1c1917" letter-spacing="-0.01em">What a score floor buys, and costs</text>
<text x="24" y="53" font-size="12" fill="#78716c">Left of the line the floor is free; right of it recall pays for abstention.</text>
<line x1="155.7" y1="112" x2="155.7" y2="298" stroke="#a8a29e" stroke-width="1" stroke-dasharray="3 3"/><line x1="80" y1="298.0" x2="326" y2="298.0" stroke="#eeecea" stroke-width="1"/><text x="71" y="301.5" text-anchor="end" font-size="10.5" fill="#a8a29e">0.00</text><line x1="80" y1="251.5" x2="326" y2="251.5" stroke="#eeecea" stroke-width="1"/><text x="71" y="255.0" text-anchor="end" font-size="10.5" fill="#a8a29e">0.25</text><line x1="80" y1="205.0" x2="326" y2="205.0" stroke="#eeecea" stroke-width="1"/><text x="71" y="208.5" text-anchor="end" font-size="10.5" fill="#a8a29e">0.50</text><line x1="80" y1="158.5" x2="326" y2="158.5" stroke="#eeecea" stroke-width="1"/><text x="71" y="162.0" text-anchor="end" font-size="10.5" fill="#a8a29e">0.75</text><line x1="80" y1="112.0" x2="326" y2="112.0" stroke="#eeecea" stroke-width="1"/><text x="71" y="115.5" text-anchor="end" font-size="10.5" fill="#a8a29e">1.00</text><text x="80.0" y="315.0" text-anchor="middle" font-size="10.5" fill="#a8a29e">-12.0</text><text x="155.7" y="315.0" text-anchor="middle" font-size="10.5" fill="#a8a29e">-8.0</text><text x="231.4" y="315.0" text-anchor="middle" font-size="10.5" fill="#a8a29e">-4.0</text><text x="307.1" y="315.0" text-anchor="middle" font-size="10.5" fill="#a8a29e">0.0</text><text x="203" y="334" text-anchor="middle" font-size="11" fill="#78716c">minimum cross-encoder score</text><text transform="rotate(-90 44 205)" x="44" y="205" text-anchor="middle" font-size="11" fill="#78716c">share</text><path d="M80.0,145.2 L98.9,145.2 L117.8,145.2 L136.8,145.2 L155.7,145.2 L174.6,149.6 L193.5,154.1 L212.5,158.5 L231.4,165.1 L250.3,171.8 L269.2,178.4 L288.2,182.9 L307.1,182.9 L326.0,191.7" fill="none" stroke="#4f46e5" stroke-width="2" stroke-linejoin="round" stroke-linecap="round"/><circle cx="80.0" cy="145.2" r="4" fill="#4f46e5" stroke="#ffffff" stroke-width="2"/><circle cx="98.9" cy="145.2" r="4" fill="#4f46e5" stroke="#ffffff" stroke-width="2"/><circle cx="117.8" cy="145.2" r="4" fill="#4f46e5" stroke="#ffffff" stroke-width="2"/><circle cx="136.8" cy="145.2" r="4" fill="#4f46e5" stroke="#ffffff" stroke-width="2"/><circle cx="155.7" cy="145.2" r="4" fill="#4f46e5" stroke="#ffffff" stroke-width="2"/><circle cx="174.6" cy="149.6" r="4" fill="#4f46e5" stroke="#ffffff" stroke-width="2"/><circle cx="193.5" cy="154.1" r="4" fill="#4f46e5" stroke="#ffffff" stroke-width="2"/><circle cx="212.5" cy="158.5" r="4" fill="#4f46e5" stroke="#ffffff" stroke-width="2"/><circle cx="231.4" cy="165.1" r="4" fill="#4f46e5" stroke="#ffffff" stroke-width="2"/><circle cx="250.3" cy="171.8" r="4" fill="#4f46e5" stroke="#ffffff" stroke-width="2"/><circle cx="269.2" cy="178.4" r="4" fill="#4f46e5" stroke="#ffffff" stroke-width="2"/><circle cx="288.2" cy="182.9" r="4" fill="#4f46e5" stroke="#ffffff" stroke-width="2"/><circle cx="307.1" cy="182.9" r="4" fill="#4f46e5" stroke="#ffffff" stroke-width="2"/><circle cx="326.0" cy="191.7" r="4" fill="#4f46e5" stroke="#ffffff" stroke-width="2"/><path d="M80.0,298.0 L98.9,298.0 L117.8,228.2 L136.8,205.0 L155.7,205.0 L174.6,181.8 L193.5,181.8 L212.5,135.2 L231.4,135.2 L250.3,112.0 L269.2,112.0 L288.2,112.0 L307.1,112.0 L326.0,112.0" fill="none" stroke="#ea580c" stroke-width="2" stroke-linejoin="round" stroke-linecap="round"/><circle cx="80.0" cy="298.0" r="4" fill="#ea580c" stroke="#ffffff" stroke-width="2"/><circle cx="98.9" cy="298.0" r="4" fill="#ea580c" stroke="#ffffff" stroke-width="2"/><circle cx="117.8" cy="228.2" r="4" fill="#ea580c" stroke="#ffffff" stroke-width="2"/><circle cx="136.8" cy="205.0" r="4" fill="#ea580c" stroke="#ffffff" stroke-width="2"/><circle cx="155.7" cy="205.0" r="4" fill="#ea580c" stroke="#ffffff" stroke-width="2"/><circle cx="174.6" cy="181.8" r="4" fill="#ea580c" stroke="#ffffff" stroke-width="2"/><circle cx="193.5" cy="181.8" r="4" fill="#ea580c" stroke="#ffffff" stroke-width="2"/><circle cx="212.5" cy="135.2" r="4" fill="#ea580c" stroke="#ffffff" stroke-width="2"/><circle cx="231.4" cy="135.2" r="4" fill="#ea580c" stroke="#ffffff" stroke-width="2"/><circle cx="250.3" cy="112.0" r="4" fill="#ea580c" stroke="#ffffff" stroke-width="2"/><circle cx="269.2" cy="112.0" r="4" fill="#ea580c" stroke="#ffffff" stroke-width="2"/><circle cx="288.2" cy="112.0" r="4" fill="#ea580c" stroke="#ffffff" stroke-width="2"/><circle cx="307.1" cy="112.0" r="4" fill="#ea580c" stroke="#ffffff" stroke-width="2"/><circle cx="326.0" cy="112.0" r="4" fill="#ea580c" stroke="#ffffff" stroke-width="2"/><text x="337.0" y="116.0" font-size="11" font-weight="600" fill="#ea580c">abstains</text><text x="337.0" y="195.7" font-size="11" font-weight="600" fill="#4f46e5">recall</text><text x="90" y="124" font-size="10.5" fill="#78716c">default −8.0</text><rect x="24" y="69" width="10" height="10" rx="3" fill="#4f46e5"/><text x="39" y="78" font-size="11.5" fill="#78716c">recall</text><rect x="90.0" y="69" width="10" height="10" rx="3" fill="#ea580c"/><text x="105.0" y="78" font-size="11.5" fill="#78716c">abstains correctly</text>
</svg>