<?xml version="1.0" encoding="utf-8" standalone="no"?>
<!DOCTYPE svg PUBLIC "-//W3C//DTD SVG 1.1//EN"
  "http://www.w3.org/Graphics/SVG/1.1/DTD/svg11.dtd">
<svg xmlns:xlink="http://www.w3.org/1999/xlink" width="619.2pt" height="274.32pt" viewBox="0 0 619.2 274.32" xmlns="http://www.w3.org/2000/svg" version="1.1">
 <metadata>
  <rdf:RDF xmlns:dc="http://purl.org/dc/elements/1.1/" xmlns:cc="http://creativecommons.org/ns#" xmlns:rdf="http://www.w3.org/1999/02/22-rdf-syntax-ns#">
   <cc:Work>
    <dc:type rdf:resource="http://purl.org/dc/dcmitype/StillImage"/>
    <dc:date>1980-01-01T00:00:00+00:00</dc:date>
    <dc:format>image/svg+xml</dc:format>
    <dc:creator>
     <cc:Agent>
      <dc:title>Matplotlib v3.11.1, https://matplotlib.org/</dc:title>
     </cc:Agent>
    </dc:creator>
   </cc:Work>
  </rdf:RDF>
 </metadata>
 <defs>
  <style type="text/css">*{stroke-linejoin: round; stroke-linecap: butt}</style>
 </defs>
 <g id="figure_1">
  <g id="patch_1">
   <path d="M 0 274.32 
L 619.2 274.32 
L 619.2 0 
L 0 0 
z
" style="fill: #1a1a19"/>
  </g>
  <g id="axes_1">
   <g id="patch_2">
    <path d="M 123.84 219.6 
L 345.223178 219.6 
L 345.223178 72 
L 123.84 72 
z
" style="fill: #1a1a19"/>
   </g>
   <g id="matplotlib.axis_1">
    <g id="xtick_1">
     <g id="line2d_1">
      <path d="M 123.84 219.6 
L 123.84 72 
" clip-path="url(#p8b09de0d2b)" style="fill: none; stroke: #2c2c2a; stroke-width: 0.6; stroke-linecap: round"/>
     </g>
     <g id="line2d_2">
      <defs>
       <path id="m0d6fe702cd" d="M 0 0 
L 0 3.5 
" style="stroke: #898781; stroke-width: 0.8"/>
      </defs>
      <g>
       <use xlink:href="#m0d6fe702cd" x="123.84" y="219.6" style="fill: #898781; stroke: #898781; stroke-width: 0.8"/>
      </g>
     </g>
     <g id="text_1">
      <!-- 0.00 -->
      <g style="fill: #898781" transform="translate(114.93375 232.678125) scale(0.08 -0.08)">
       <defs>
        <path id="DejaVuSans-13" d="M 2034 4250 
Q 1547 4250 1301 3770 
Q 1056 3291 1056 2328 
Q 1056 1369 1301 889 
Q 1547 409 2034 409 
Q 2525 409 2770 889 
Q 3016 1369 3016 2328 
Q 3016 3291 2770 3770 
Q 2525 4250 2034 4250 
z
M 2034 4750 
Q 2819 4750 3233 4129 
Q 3647 3509 3647 2328 
Q 3647 1150 3233 529 
Q 2819 -91 2034 -91 
Q 1250 -91 836 529 
Q 422 1150 422 2328 
Q 422 3509 836 4129 
Q 1250 4750 2034 4750 
z
" transform="scale(0.015625)"/>
        <path id="DejaVuSans-11" d="M 684 794 
L 1344 794 
L 1344 0 
L 684 0 
L 684 794 
z
" transform="scale(0.015625)"/>
       </defs>
       <use xlink:href="#DejaVuSans-13"/>
       <use xlink:href="#DejaVuSans-11" transform="translate(63.625 0)"/>
       <use xlink:href="#DejaVuSans-13" transform="translate(95.40625 0)"/>
       <use xlink:href="#DejaVuSans-13" transform="translate(159.03125 0)"/>
      </g>
     </g>
    </g>
    <g id="xtick_2">
     <g id="line2d_3">
      <path d="M 173.255888 219.6 
L 173.255888 72 
" clip-path="url(#p8b09de0d2b)" style="fill: none; stroke: #2c2c2a; stroke-width: 0.6; stroke-linecap: round"/>
     </g>
     <g id="line2d_4">
      <g>
       <use xlink:href="#m0d6fe702cd" x="173.255888" y="219.6" style="fill: #898781; stroke: #898781; stroke-width: 0.8"/>
      </g>
     </g>
     <g id="text_2">
      <!-- 0.25 -->
      <g style="fill: #898781" transform="translate(164.349638 232.678125) scale(0.08 -0.08)">
       <defs>
        <path id="DejaVuSans-15" d="M 1228 531 
L 3431 531 
L 3431 0 
L 469 0 
L 469 531 
Q 828 903 1448 1529 
Q 2069 2156 2228 2338 
Q 2531 2678 2651 2914 
Q 2772 3150 2772 3378 
Q 2772 3750 2511 3984 
Q 2250 4219 1831 4219 
Q 1534 4219 1204 4116 
Q 875 4013 500 3803 
L 500 4441 
Q 881 4594 1212 4672 
Q 1544 4750 1819 4750 
Q 2544 4750 2975 4387 
Q 3406 4025 3406 3419 
Q 3406 3131 3298 2873 
Q 3191 2616 2906 2266 
Q 2828 2175 2409 1742 
Q 1991 1309 1228 531 
z
" transform="scale(0.015625)"/>
        <path id="DejaVuSans-18" d="M 691 4666 
L 3169 4666 
L 3169 4134 
L 1269 4134 
L 1269 2991 
Q 1406 3038 1543 3061 
Q 1681 3084 1819 3084 
Q 2600 3084 3056 2656 
Q 3513 2228 3513 1497 
Q 3513 744 3044 326 
Q 2575 -91 1722 -91 
Q 1428 -91 1123 -41 
Q 819 9 494 109 
L 494 744 
Q 775 591 1075 516 
Q 1375 441 1709 441 
Q 2250 441 2565 725 
Q 2881 1009 2881 1497 
Q 2881 1984 2565 2268 
Q 2250 2553 1709 2553 
Q 1456 2553 1204 2497 
Q 953 2441 691 2322 
L 691 4666 
z
" transform="scale(0.015625)"/>
       </defs>
       <use xlink:href="#DejaVuSans-13"/>
       <use xlink:href="#DejaVuSans-11" transform="translate(63.625 0)"/>
       <use xlink:href="#DejaVuSans-15" transform="translate(95.40625 0)"/>
       <use xlink:href="#DejaVuSans-18" transform="translate(159.03125 0)"/>
      </g>
     </g>
    </g>
    <g id="xtick_3">
     <g id="line2d_5">
      <path d="M 222.671776 219.6 
L 222.671776 72 
" clip-path="url(#p8b09de0d2b)" style="fill: none; stroke: #2c2c2a; stroke-width: 0.6; stroke-linecap: round"/>
     </g>
     <g id="line2d_6">
      <g>
       <use xlink:href="#m0d6fe702cd" x="222.671776" y="219.6" style="fill: #898781; stroke: #898781; stroke-width: 0.8"/>
      </g>
     </g>
     <g id="text_3">
      <!-- 0.50 -->
      <g style="fill: #898781" transform="translate(213.765526 232.678125) scale(0.08 -0.08)">
       <use xlink:href="#DejaVuSans-13"/>
       <use xlink:href="#DejaVuSans-11" transform="translate(63.625 0)"/>
       <use xlink:href="#DejaVuSans-18" transform="translate(95.40625 0)"/>
       <use xlink:href="#DejaVuSans-13" transform="translate(159.03125 0)"/>
      </g>
     </g>
    </g>
    <g id="xtick_4">
     <g id="line2d_7">
      <path d="M 272.087664 219.6 
L 272.087664 72 
" clip-path="url(#p8b09de0d2b)" style="fill: none; stroke: #2c2c2a; stroke-width: 0.6; stroke-linecap: round"/>
     </g>
     <g id="line2d_8">
      <g>
       <use xlink:href="#m0d6fe702cd" x="272.087664" y="219.6" style="fill: #898781; stroke: #898781; stroke-width: 0.8"/>
      </g>
     </g>
     <g id="text_4">
      <!-- 0.75 -->
      <g style="fill: #898781" transform="translate(263.181414 232.678125) scale(0.08 -0.08)">
       <defs>
        <path id="DejaVuSans-1a" d="M 525 4666 
L 3525 4666 
L 3525 4397 
L 1831 0 
L 1172 0 
L 2766 4134 
L 525 4134 
L 525 4666 
z
" transform="scale(0.015625)"/>
       </defs>
       <use xlink:href="#DejaVuSans-13"/>
       <use xlink:href="#DejaVuSans-11" transform="translate(63.625 0)"/>
       <use xlink:href="#DejaVuSans-1a" transform="translate(95.40625 0)"/>
       <use xlink:href="#DejaVuSans-18" transform="translate(159.03125 0)"/>
      </g>
     </g>
    </g>
    <g id="xtick_5">
     <g id="line2d_9">
      <path d="M 321.503551 219.6 
L 321.503551 72 
" clip-path="url(#p8b09de0d2b)" style="fill: none; stroke: #2c2c2a; stroke-width: 0.6; stroke-linecap: round"/>
     </g>
     <g id="line2d_10">
      <g>
       <use xlink:href="#m0d6fe702cd" x="321.503551" y="219.6" style="fill: #898781; stroke: #898781; stroke-width: 0.8"/>
      </g>
     </g>
     <g id="text_5">
      <!-- 1.00 -->
      <g style="fill: #898781" transform="translate(312.597301 232.678125) scale(0.08 -0.08)">
       <defs>
        <path id="DejaVuSans-14" d="M 794 531 
L 1825 531 
L 1825 4091 
L 703 3866 
L 703 4441 
L 1819 4666 
L 2450 4666 
L 2450 531 
L 3481 531 
L 3481 0 
L 794 0 
L 794 531 
z
" transform="scale(0.015625)"/>
       </defs>
       <use xlink:href="#DejaVuSans-14"/>
       <use xlink:href="#DejaVuSans-11" transform="translate(63.625 0)"/>
       <use xlink:href="#DejaVuSans-13" transform="translate(95.40625 0)"/>
       <use xlink:href="#DejaVuSans-13" transform="translate(159.03125 0)"/>
      </g>
     </g>
    </g>
    <g id="text_6">
     <!-- nDCG@10   ·   dense -->
     <g style="fill: #c3c2b7" transform="translate(187.757604 245.438594) scale(0.09 -0.09)">
      <defs>
       <path id="DejaVuSans-51" d="M 3513 2113 
L 3513 0 
L 2938 0 
L 2938 2094 
Q 2938 2591 2744 2837 
Q 2550 3084 2163 3084 
Q 1697 3084 1428 2787 
Q 1159 2491 1159 1978 
L 1159 0 
L 581 0 
L 581 3500 
L 1159 3500 
L 1159 2956 
Q 1366 3272 1645 3428 
Q 1925 3584 2291 3584 
Q 2894 3584 3203 3211 
Q 3513 2838 3513 2113 
z
" transform="scale(0.015625)"/>
       <path id="DejaVuSans-27" d="M 1259 4147 
L 1259 519 
L 2022 519 
Q 2988 519 3436 956 
Q 3884 1394 3884 2338 
Q 3884 3275 3436 3711 
Q 2988 4147 2022 4147 
L 1259 4147 
z
M 628 4666 
L 1925 4666 
Q 3281 4666 3915 4102 
Q 4550 3538 4550 2338 
Q 4550 1131 3912 565 
Q 3275 0 1925 0 
L 628 0 
L 628 4666 
z
" transform="scale(0.015625)"/>
       <path id="DejaVuSans-26" d="M 4122 4306 
L 4122 3641 
Q 3803 3938 3442 4084 
Q 3081 4231 2675 4231 
Q 1875 4231 1450 3742 
Q 1025 3253 1025 2328 
Q 1025 1406 1450 917 
Q 1875 428 2675 428 
Q 3081 428 3442 575 
Q 3803 722 4122 1019 
L 4122 359 
Q 3791 134 3420 21 
Q 3050 -91 2638 -91 
Q 1578 -91 968 557 
Q 359 1206 359 2328 
Q 359 3453 968 4101 
Q 1578 4750 2638 4750 
Q 3056 4750 3426 4639 
Q 3797 4528 4122 4306 
z
" transform="scale(0.015625)"/>
       <path id="DejaVuSans-2a" d="M 3809 666 
L 3809 1919 
L 2778 1919 
L 2778 2438 
L 4434 2438 
L 4434 434 
Q 4069 175 3628 42 
Q 3188 -91 2688 -91 
Q 1594 -91 976 548 
Q 359 1188 359 2328 
Q 359 3472 976 4111 
Q 1594 4750 2688 4750 
Q 3144 4750 3555 4637 
Q 3966 4525 4313 4306 
L 4313 3634 
Q 3963 3931 3569 4081 
Q 3175 4231 2741 4231 
Q 1884 4231 1454 3753 
Q 1025 3275 1025 2328 
Q 1025 1384 1454 906 
Q 1884 428 2741 428 
Q 3075 428 3337 486 
Q 3600 544 3809 666 
z
" transform="scale(0.015625)"/>
       <path id="DejaVuSans-23" d="M 2381 1678 
Q 2381 1231 2603 976 
Q 2825 722 3213 722 
Q 3597 722 3817 978 
Q 4038 1234 4038 1678 
Q 4038 2116 3813 2373 
Q 3588 2631 3206 2631 
Q 2828 2631 2604 2375 
Q 2381 2119 2381 1678 
z
M 4084 744 
Q 3897 503 3655 389 
Q 3413 275 3091 275 
Q 2553 275 2217 664 
Q 1881 1053 1881 1678 
Q 1881 2303 2218 2693 
Q 2556 3084 3091 3084 
Q 3413 3084 3656 2967 
Q 3900 2850 4084 2613 
L 4084 3022 
L 4531 3022 
L 4531 722 
Q 4988 791 5245 1139 
Q 5503 1488 5503 2041 
Q 5503 2375 5404 2669 
Q 5306 2963 5106 3213 
Q 4781 3622 4314 3839 
Q 3847 4056 3297 4056 
Q 2913 4056 2559 3954 
Q 2206 3853 1906 3653 
Q 1416 3334 1139 2817 
Q 863 2300 863 1697 
Q 863 1200 1042 765 
Q 1222 331 1563 0 
Q 1891 -325 2322 -495 
Q 2753 -666 3244 -666 
Q 3647 -666 4036 -530 
Q 4425 -394 4750 -141 
L 5031 -488 
Q 4641 -791 4180 -952 
Q 3719 -1113 3244 -1113 
Q 2666 -1113 2153 -908 
Q 1641 -703 1241 -313 
Q 841 78 631 592 
Q 422 1106 422 1697 
Q 422 2266 634 2781 
Q 847 3297 1241 3688 
Q 1644 4084 2172 4295 
Q 2700 4506 3291 4506 
Q 3953 4506 4520 4234 
Q 5088 3963 5472 3463 
Q 5706 3156 5829 2797 
Q 5953 2438 5953 2053 
Q 5953 1231 5456 756 
Q 4959 281 4084 263 
L 4084 744 
z
" transform="scale(0.015625)"/>
       <path id="DejaVuSans-3" transform="scale(0.015625)"/>
       <path id="DejaVuSans-79" d="M 684 2619 
L 1344 2619 
L 1344 1825 
L 684 1825 
L 684 2619 
z
" transform="scale(0.015625)"/>
       <path id="DejaVuSans-47" d="M 2906 2969 
L 2906 4863 
L 3481 4863 
L 3481 0 
L 2906 0 
L 2906 525 
Q 2725 213 2448 61 
Q 2172 -91 1784 -91 
Q 1150 -91 751 415 
Q 353 922 353 1747 
Q 353 2572 751 3078 
Q 1150 3584 1784 3584 
Q 2172 3584 2448 3432 
Q 2725 3281 2906 2969 
z
M 947 1747 
Q 947 1113 1208 752 
Q 1469 391 1925 391 
Q 2381 391 2643 752 
Q 2906 1113 2906 1747 
Q 2906 2381 2643 2742 
Q 2381 3103 1925 3103 
Q 1469 3103 1208 2742 
Q 947 2381 947 1747 
z
" transform="scale(0.015625)"/>
       <path id="DejaVuSans-48" d="M 3597 1894 
L 3597 1613 
L 953 1613 
Q 991 1019 1311 708 
Q 1631 397 2203 397 
Q 2534 397 2845 478 
Q 3156 559 3463 722 
L 3463 178 
Q 3153 47 2828 -22 
Q 2503 -91 2169 -91 
Q 1331 -91 842 396 
Q 353 884 353 1716 
Q 353 2575 817 3079 
Q 1281 3584 2069 3584 
Q 2775 3584 3186 3129 
Q 3597 2675 3597 1894 
z
M 3022 2063 
Q 3016 2534 2758 2815 
Q 2500 3097 2075 3097 
Q 1594 3097 1305 2825 
Q 1016 2553 972 2059 
L 3022 2063 
z
" transform="scale(0.015625)"/>
       <path id="DejaVuSans-56" d="M 2834 3397 
L 2834 2853 
Q 2591 2978 2328 3040 
Q 2066 3103 1784 3103 
Q 1356 3103 1142 2972 
Q 928 2841 928 2578 
Q 928 2378 1081 2264 
Q 1234 2150 1697 2047 
L 1894 2003 
Q 2506 1872 2764 1633 
Q 3022 1394 3022 966 
Q 3022 478 2636 193 
Q 2250 -91 1575 -91 
Q 1294 -91 989 -36 
Q 684 19 347 128 
L 347 722 
Q 666 556 975 473 
Q 1284 391 1588 391 
Q 1994 391 2212 530 
Q 2431 669 2431 922 
Q 2431 1156 2273 1281 
Q 2116 1406 1581 1522 
L 1381 1569 
Q 847 1681 609 1914 
Q 372 2147 372 2553 
Q 372 3047 722 3315 
Q 1072 3584 1716 3584 
Q 2034 3584 2315 3537 
Q 2597 3491 2834 3397 
z
" transform="scale(0.015625)"/>
      </defs>
      <use xlink:href="#DejaVuSans-51"/>
      <use xlink:href="#DejaVuSans-27" transform="translate(63.375 0)"/>
      <use xlink:href="#DejaVuSans-26" transform="translate(140.375 0)"/>
      <use xlink:href="#DejaVuSans-2a" transform="translate(210.203125 0)"/>
      <use xlink:href="#DejaVuSans-23" transform="translate(287.6875 0)"/>
      <use xlink:href="#DejaVuSans-14" transform="translate(387.6875 0)"/>
      <use xlink:href="#DejaVuSans-13" transform="translate(451.3125 0)"/>
      <use xlink:href="#DejaVuSans-3" transform="translate(514.9375 0)"/>
      <use xlink:href="#DejaVuSans-3" transform="translate(546.71875 0)"/>
      <use xlink:href="#DejaVuSans-3" transform="translate(578.5 0)"/>
      <use xlink:href="#DejaVuSans-79" transform="translate(610.28125 0)"/>
      <use xlink:href="#DejaVuSans-3" transform="translate(642.0625 0)"/>
      <use xlink:href="#DejaVuSans-3" transform="translate(673.84375 0)"/>
      <use xlink:href="#DejaVuSans-3" transform="translate(705.625 0)"/>
      <use xlink:href="#DejaVuSans-47" transform="translate(737.40625 0)"/>
      <use xlink:href="#DejaVuSans-48" transform="translate(800.890625 0)"/>
      <use xlink:href="#DejaVuSans-51" transform="translate(862.421875 0)"/>
      <use xlink:href="#DejaVuSans-56" transform="translate(925.796875 0)"/>
      <use xlink:href="#DejaVuSans-48" transform="translate(977.890625 0)"/>
     </g>
    </g>
   </g>
   <g id="matplotlib.axis_2">
    <g id="ytick_1">
     <g id="line2d_11"/>
     <g id="text_7">
      <!-- question as asked -->
      <g style="fill: #c3c2b7" transform="translate(43.695234 87.529336) scale(0.085 -0.085)">
       <defs>
        <path id="DejaVuSans-54" d="M 947 1747 
Q 947 1113 1208 752 
Q 1469 391 1925 391 
Q 2381 391 2643 752 
Q 2906 1113 2906 1747 
Q 2906 2381 2643 2742 
Q 2381 3103 1925 3103 
Q 1469 3103 1208 2742 
Q 947 2381 947 1747 
z
M 2906 525 
Q 2725 213 2448 61 
Q 2172 -91 1784 -91 
Q 1150 -91 751 415 
Q 353 922 353 1747 
Q 353 2572 751 3078 
Q 1150 3584 1784 3584 
Q 2172 3584 2448 3432 
Q 2725 3281 2906 2969 
L 2906 3500 
L 3481 3500 
L 3481 -1331 
L 2906 -1331 
L 2906 525 
z
" transform="scale(0.015625)"/>
        <path id="DejaVuSans-58" d="M 544 1381 
L 544 3500 
L 1119 3500 
L 1119 1403 
Q 1119 906 1312 657 
Q 1506 409 1894 409 
Q 2359 409 2629 706 
Q 2900 1003 2900 1516 
L 2900 3500 
L 3475 3500 
L 3475 0 
L 2900 0 
L 2900 538 
Q 2691 219 2414 64 
Q 2138 -91 1772 -91 
Q 1169 -91 856 284 
Q 544 659 544 1381 
z
M 1991 3584 
L 1991 3584 
z
" transform="scale(0.015625)"/>
        <path id="DejaVuSans-57" d="M 1172 4494 
L 1172 3500 
L 2356 3500 
L 2356 3053 
L 1172 3053 
L 1172 1153 
Q 1172 725 1289 603 
Q 1406 481 1766 481 
L 2356 481 
L 2356 0 
L 1766 0 
Q 1100 0 847 248 
Q 594 497 594 1153 
L 594 3053 
L 172 3053 
L 172 3500 
L 594 3500 
L 594 4494 
L 1172 4494 
z
" transform="scale(0.015625)"/>
        <path id="DejaVuSans-4c" d="M 603 3500 
L 1178 3500 
L 1178 0 
L 603 0 
L 603 3500 
z
M 603 4863 
L 1178 4863 
L 1178 4134 
L 603 4134 
L 603 4863 
z
" transform="scale(0.015625)"/>
        <path id="DejaVuSans-52" d="M 1959 3097 
Q 1497 3097 1228 2736 
Q 959 2375 959 1747 
Q 959 1119 1226 758 
Q 1494 397 1959 397 
Q 2419 397 2687 759 
Q 2956 1122 2956 1747 
Q 2956 2369 2687 2733 
Q 2419 3097 1959 3097 
z
M 1959 3584 
Q 2709 3584 3137 3096 
Q 3566 2609 3566 1747 
Q 3566 888 3137 398 
Q 2709 -91 1959 -91 
Q 1206 -91 779 398 
Q 353 888 353 1747 
Q 353 2609 779 3096 
Q 1206 3584 1959 3584 
z
" transform="scale(0.015625)"/>
        <path id="DejaVuSans-44" d="M 2194 1759 
Q 1497 1759 1228 1600 
Q 959 1441 959 1056 
Q 959 750 1161 570 
Q 1363 391 1709 391 
Q 2188 391 2477 730 
Q 2766 1069 2766 1631 
L 2766 1759 
L 2194 1759 
z
M 3341 1997 
L 3341 0 
L 2766 0 
L 2766 531 
Q 2569 213 2275 61 
Q 1981 -91 1556 -91 
Q 1019 -91 701 211 
Q 384 513 384 1019 
Q 384 1609 779 1909 
Q 1175 2209 1959 2209 
L 2766 2209 
L 2766 2266 
Q 2766 2663 2505 2880 
Q 2244 3097 1772 3097 
Q 1472 3097 1187 3025 
Q 903 2953 641 2809 
L 641 3341 
Q 956 3463 1253 3523 
Q 1550 3584 1831 3584 
Q 2591 3584 2966 3190 
Q 3341 2797 3341 1997 
z
" transform="scale(0.015625)"/>
        <path id="DejaVuSans-4e" d="M 581 4863 
L 1159 4863 
L 1159 1991 
L 2875 3500 
L 3609 3500 
L 1753 1863 
L 3688 0 
L 2938 0 
L 1159 1709 
L 1159 0 
L 581 0 
L 581 4863 
z
" transform="scale(0.015625)"/>
       </defs>
       <use xlink:href="#DejaVuSans-54"/>
       <use xlink:href="#DejaVuSans-58" transform="translate(63.484375 0)"/>
       <use xlink:href="#DejaVuSans-48" transform="translate(126.859375 0)"/>
       <use xlink:href="#DejaVuSans-56" transform="translate(188.390625 0)"/>
       <use xlink:href="#DejaVuSans-57" transform="translate(240.484375 0)"/>
       <use xlink:href="#DejaVuSans-4c" transform="translate(279.6875 0)"/>
       <use xlink:href="#DejaVuSans-52" transform="translate(307.46875 0)"/>
       <use xlink:href="#DejaVuSans-51" transform="translate(368.65625 0)"/>
       <use xlink:href="#DejaVuSans-3" transform="translate(432.03125 0)"/>
       <use xlink:href="#DejaVuSans-44" transform="translate(463.8125 0)"/>
       <use xlink:href="#DejaVuSans-56" transform="translate(525.09375 0)"/>
       <use xlink:href="#DejaVuSans-3" transform="translate(577.1875 0)"/>
       <use xlink:href="#DejaVuSans-44" transform="translate(608.96875 0)"/>
       <use xlink:href="#DejaVuSans-56" transform="translate(670.25 0)"/>
       <use xlink:href="#DejaVuSans-4e" transform="translate(722.34375 0)"/>
       <use xlink:href="#DejaVuSans-48" transform="translate(776.6875 0)"/>
       <use xlink:href="#DejaVuSans-47" transform="translate(838.21875 0)"/>
      </g>
     </g>
    </g>
    <g id="ytick_2">
     <g id="line2d_12"/>
     <g id="text_8">
      <!-- decomposition + original -->
      <g style="fill: #c3c2b7" transform="translate(13.594609 112.129336) scale(0.085 -0.085)">
       <defs>
        <path id="DejaVuSans-46" d="M 3122 3366 
L 3122 2828 
Q 2878 2963 2633 3030 
Q 2388 3097 2138 3097 
Q 1578 3097 1268 2742 
Q 959 2388 959 1747 
Q 959 1106 1268 751 
Q 1578 397 2138 397 
Q 2388 397 2633 464 
Q 2878 531 3122 666 
L 3122 134 
Q 2881 22 2623 -34 
Q 2366 -91 2075 -91 
Q 1284 -91 818 406 
Q 353 903 353 1747 
Q 353 2603 823 3093 
Q 1294 3584 2113 3584 
Q 2378 3584 2631 3529 
Q 2884 3475 3122 3366 
z
" transform="scale(0.015625)"/>
        <path id="DejaVuSans-50" d="M 3328 2828 
Q 3544 3216 3844 3400 
Q 4144 3584 4550 3584 
Q 5097 3584 5394 3201 
Q 5691 2819 5691 2113 
L 5691 0 
L 5113 0 
L 5113 2094 
Q 5113 2597 4934 2840 
Q 4756 3084 4391 3084 
Q 3944 3084 3684 2787 
Q 3425 2491 3425 1978 
L 3425 0 
L 2847 0 
L 2847 2094 
Q 2847 2600 2669 2842 
Q 2491 3084 2119 3084 
Q 1678 3084 1418 2786 
Q 1159 2488 1159 1978 
L 1159 0 
L 581 0 
L 581 3500 
L 1159 3500 
L 1159 2956 
Q 1356 3278 1631 3431 
Q 1906 3584 2284 3584 
Q 2666 3584 2933 3390 
Q 3200 3197 3328 2828 
z
" transform="scale(0.015625)"/>
        <path id="DejaVuSans-53" d="M 1159 525 
L 1159 -1331 
L 581 -1331 
L 581 3500 
L 1159 3500 
L 1159 2969 
Q 1341 3281 1617 3432 
Q 1894 3584 2278 3584 
Q 2916 3584 3314 3078 
Q 3713 2572 3713 1747 
Q 3713 922 3314 415 
Q 2916 -91 2278 -91 
Q 1894 -91 1617 61 
Q 1341 213 1159 525 
z
M 3116 1747 
Q 3116 2381 2855 2742 
Q 2594 3103 2138 3103 
Q 1681 3103 1420 2742 
Q 1159 2381 1159 1747 
Q 1159 1113 1420 752 
Q 1681 391 2138 391 
Q 2594 391 2855 752 
Q 3116 1113 3116 1747 
z
" transform="scale(0.015625)"/>
        <path id="DejaVuSans-e" d="M 2944 4013 
L 2944 2272 
L 4684 2272 
L 4684 1741 
L 2944 1741 
L 2944 0 
L 2419 0 
L 2419 1741 
L 678 1741 
L 678 2272 
L 2419 2272 
L 2419 4013 
L 2944 4013 
z
" transform="scale(0.015625)"/>
        <path id="DejaVuSans-55" d="M 2631 2963 
Q 2534 3019 2420 3045 
Q 2306 3072 2169 3072 
Q 1681 3072 1420 2755 
Q 1159 2438 1159 1844 
L 1159 0 
L 581 0 
L 581 3500 
L 1159 3500 
L 1159 2956 
Q 1341 3275 1631 3429 
Q 1922 3584 2338 3584 
Q 2397 3584 2469 3576 
Q 2541 3569 2628 3553 
L 2631 2963 
z
" transform="scale(0.015625)"/>
        <path id="DejaVuSans-4a" d="M 2906 1791 
Q 2906 2416 2648 2759 
Q 2391 3103 1925 3103 
Q 1463 3103 1205 2759 
Q 947 2416 947 1791 
Q 947 1169 1205 825 
Q 1463 481 1925 481 
Q 2391 481 2648 825 
Q 2906 1169 2906 1791 
z
M 3481 434 
Q 3481 -459 3084 -895 
Q 2688 -1331 1869 -1331 
Q 1566 -1331 1297 -1286 
Q 1028 -1241 775 -1147 
L 775 -588 
Q 1028 -725 1275 -790 
Q 1522 -856 1778 -856 
Q 2344 -856 2625 -561 
Q 2906 -266 2906 331 
L 2906 616 
Q 2728 306 2450 153 
Q 2172 0 1784 0 
Q 1141 0 747 490 
Q 353 981 353 1791 
Q 353 2603 747 3093 
Q 1141 3584 1784 3584 
Q 2172 3584 2450 3431 
Q 2728 3278 2906 2969 
L 2906 3500 
L 3481 3500 
L 3481 434 
z
" transform="scale(0.015625)"/>
        <path id="DejaVuSans-4f" d="M 603 4863 
L 1178 4863 
L 1178 0 
L 603 0 
L 603 4863 
z
" transform="scale(0.015625)"/>
       </defs>
       <use xlink:href="#DejaVuSans-47"/>
       <use xlink:href="#DejaVuSans-48" transform="translate(63.484375 0)"/>
       <use xlink:href="#DejaVuSans-46" transform="translate(125.015625 0)"/>
       <use xlink:href="#DejaVuSans-52" transform="translate(180 0)"/>
       <use xlink:href="#DejaVuSans-50" transform="translate(241.1875 0)"/>
       <use xlink:href="#DejaVuSans-53" transform="translate(338.59375 0)"/>
       <use xlink:href="#DejaVuSans-52" transform="translate(402.078125 0)"/>
       <use xlink:href="#DejaVuSans-56" transform="translate(463.265625 0)"/>
       <use xlink:href="#DejaVuSans-4c" transform="translate(515.359375 0)"/>
       <use xlink:href="#DejaVuSans-57" transform="translate(543.140625 0)"/>
       <use xlink:href="#DejaVuSans-4c" transform="translate(582.34375 0)"/>
       <use xlink:href="#DejaVuSans-52" transform="translate(610.125 0)"/>
       <use xlink:href="#DejaVuSans-51" transform="translate(671.3125 0)"/>
       <use xlink:href="#DejaVuSans-3" transform="translate(734.6875 0)"/>
       <use xlink:href="#DejaVuSans-e" transform="translate(766.46875 0)"/>
       <use xlink:href="#DejaVuSans-3" transform="translate(850.265625 0)"/>
       <use xlink:href="#DejaVuSans-52" transform="translate(882.046875 0)"/>
       <use xlink:href="#DejaVuSans-55" transform="translate(943.234375 0)"/>
       <use xlink:href="#DejaVuSans-4c" transform="translate(984.34375 0)"/>
       <use xlink:href="#DejaVuSans-4a" transform="translate(1012.125 0)"/>
       <use xlink:href="#DejaVuSans-4c" transform="translate(1075.609375 0)"/>
       <use xlink:href="#DejaVuSans-51" transform="translate(1103.390625 0)"/>
       <use xlink:href="#DejaVuSans-44" transform="translate(1166.765625 0)"/>
       <use xlink:href="#DejaVuSans-4f" transform="translate(1228.046875 0)"/>
      </g>
     </g>
    </g>
    <g id="ytick_3">
     <g id="line2d_13"/>
     <g id="text_9">
      <!-- decomposition -->
      <g style="fill: #c3c2b7" transform="translate(57.891562 136.729336) scale(0.085 -0.085)">
       <use xlink:href="#DejaVuSans-47"/>
       <use xlink:href="#DejaVuSans-48" transform="translate(63.484375 0)"/>
       <use xlink:href="#DejaVuSans-46" transform="translate(125.015625 0)"/>
       <use xlink:href="#DejaVuSans-52" transform="translate(180 0)"/>
       <use xlink:href="#DejaVuSans-50" transform="translate(241.1875 0)"/>
       <use xlink:href="#DejaVuSans-53" transform="translate(338.59375 0)"/>
       <use xlink:href="#DejaVuSans-52" transform="translate(402.078125 0)"/>
       <use xlink:href="#DejaVuSans-56" transform="translate(463.265625 0)"/>
       <use xlink:href="#DejaVuSans-4c" transform="translate(515.359375 0)"/>
       <use xlink:href="#DejaVuSans-57" transform="translate(543.140625 0)"/>
       <use xlink:href="#DejaVuSans-4c" transform="translate(582.34375 0)"/>
       <use xlink:href="#DejaVuSans-52" transform="translate(610.125 0)"/>
       <use xlink:href="#DejaVuSans-51" transform="translate(671.3125 0)"/>
      </g>
     </g>
    </g>
    <g id="ytick_4">
     <g id="line2d_14"/>
     <g id="text_10">
      <!-- multi-query + original -->
      <g style="fill: #c3c2b7" transform="translate(26.716484 161.329336) scale(0.085 -0.085)">
       <defs>
        <path id="DejaVuSans-10" d="M 313 2009 
L 1997 2009 
L 1997 1497 
L 313 1497 
L 313 2009 
z
" transform="scale(0.015625)"/>
        <path id="DejaVuSans-5c" d="M 2059 -325 
Q 1816 -950 1584 -1140 
Q 1353 -1331 966 -1331 
L 506 -1331 
L 506 -850 
L 844 -850 
Q 1081 -850 1212 -737 
Q 1344 -625 1503 -206 
L 1606 56 
L 191 3500 
L 800 3500 
L 1894 763 
L 2988 3500 
L 3597 3500 
L 2059 -325 
z
" transform="scale(0.015625)"/>
       </defs>
       <use xlink:href="#DejaVuSans-50"/>
       <use xlink:href="#DejaVuSans-58" transform="translate(97.40625 0)"/>
       <use xlink:href="#DejaVuSans-4f" transform="translate(160.78125 0)"/>
       <use xlink:href="#DejaVuSans-57" transform="translate(188.5625 0)"/>
       <use xlink:href="#DejaVuSans-4c" transform="translate(227.765625 0)"/>
       <use xlink:href="#DejaVuSans-10" transform="translate(255.546875 0)"/>
       <use xlink:href="#DejaVuSans-54" transform="translate(291.625 0)"/>
       <use xlink:href="#DejaVuSans-58" transform="translate(355.109375 0)"/>
       <use xlink:href="#DejaVuSans-48" transform="translate(418.484375 0)"/>
       <use xlink:href="#DejaVuSans-55" transform="translate(480.015625 0)"/>
       <use xlink:href="#DejaVuSans-5c" transform="translate(521.125 0)"/>
       <use xlink:href="#DejaVuSans-3" transform="translate(580.3125 0)"/>
       <use xlink:href="#DejaVuSans-e" transform="translate(612.09375 0)"/>
       <use xlink:href="#DejaVuSans-3" transform="translate(695.890625 0)"/>
       <use xlink:href="#DejaVuSans-52" transform="translate(727.671875 0)"/>
       <use xlink:href="#DejaVuSans-55" transform="translate(788.859375 0)"/>
       <use xlink:href="#DejaVuSans-4c" transform="translate(829.96875 0)"/>
       <use xlink:href="#DejaVuSans-4a" transform="translate(857.75 0)"/>
       <use xlink:href="#DejaVuSans-4c" transform="translate(921.234375 0)"/>
       <use xlink:href="#DejaVuSans-51" transform="translate(949.015625 0)"/>
       <use xlink:href="#DejaVuSans-44" transform="translate(1012.390625 0)"/>
       <use xlink:href="#DejaVuSans-4f" transform="translate(1073.671875 0)"/>
      </g>
     </g>
    </g>
    <g id="ytick_5">
     <g id="line2d_15"/>
     <g id="text_11">
      <!-- HyDE -->
      <g style="fill: #c3c2b7" transform="translate(97.000859 185.929004) scale(0.085 -0.085)">
       <defs>
        <path id="DejaVuSans-2b" d="M 628 4666 
L 1259 4666 
L 1259 2753 
L 3553 2753 
L 3553 4666 
L 4184 4666 
L 4184 0 
L 3553 0 
L 3553 2222 
L 1259 2222 
L 1259 0 
L 628 0 
L 628 4666 
z
" transform="scale(0.015625)"/>
        <path id="DejaVuSans-28" d="M 628 4666 
L 3578 4666 
L 3578 4134 
L 1259 4134 
L 1259 2753 
L 3481 2753 
L 3481 2222 
L 1259 2222 
L 1259 531 
L 3634 531 
L 3634 0 
L 628 0 
L 628 4666 
z
" transform="scale(0.015625)"/>
       </defs>
       <use xlink:href="#DejaVuSans-2b"/>
       <use xlink:href="#DejaVuSans-5c" transform="translate(75.203125 0)"/>
       <use xlink:href="#DejaVuSans-27" transform="translate(134.390625 0)"/>
       <use xlink:href="#DejaVuSans-28" transform="translate(211.390625 0)"/>
      </g>
     </g>
    </g>
    <g id="ytick_6">
     <g id="line2d_16"/>
     <g id="text_12">
      <!-- multi-query -->
      <g style="fill: #c3c2b7" transform="translate(71.013437 210.529336) scale(0.085 -0.085)">
       <use xlink:href="#DejaVuSans-50"/>
       <use xlink:href="#DejaVuSans-58" transform="translate(97.40625 0)"/>
       <use xlink:href="#DejaVuSans-4f" transform="translate(160.78125 0)"/>
       <use xlink:href="#DejaVuSans-57" transform="translate(188.5625 0)"/>
       <use xlink:href="#DejaVuSans-4c" transform="translate(227.765625 0)"/>
       <use xlink:href="#DejaVuSans-10" transform="translate(255.546875 0)"/>
       <use xlink:href="#DejaVuSans-54" transform="translate(291.625 0)"/>
       <use xlink:href="#DejaVuSans-58" transform="translate(355.109375 0)"/>
       <use xlink:href="#DejaVuSans-48" transform="translate(418.484375 0)"/>
       <use xlink:href="#DejaVuSans-55" transform="translate(480.015625 0)"/>
       <use xlink:href="#DejaVuSans-5c" transform="translate(521.125 0)"/>
      </g>
     </g>
    </g>
   </g>
   <g id="line2d_17">
    <path d="M 235.895467 219.6 
L 235.895467 72 
" clip-path="url(#p8b09de0d2b)" style="fill: none; stroke-dasharray: 3.6,2.7; stroke-dashoffset: 0; stroke: #898781; stroke-width: 0.9"/>
   </g>
   <g id="patch_3">
    <path d="M 123.84 219.6 
L 345.223178 219.6 
" style="fill: none; stroke: #383835; stroke-width: 0.8; stroke-linejoin: miter; stroke-linecap: square"/>
   </g>
   <g id="LineCollection_1">
    <path d="M 221.307897 84.3 
L 250.483037 84.3 
" clip-path="url(#p8b09de0d2b)" style="fill: none; stroke: #898781"/>
   </g>
   <g id="LineCollection_2">
    <path d="M 214.330374 108.9 
L 243.386916 108.9 
" clip-path="url(#p8b09de0d2b)" style="fill: none; stroke: #898781"/>
   </g>
   <g id="text_13">
    <!-- -0.036 -->
    <g style="fill: #898781" transform="translate(317.092953 110.848242) scale(0.075 -0.075)">
     <defs>
      <path id="DejaVuSans-16" d="M 2597 2516 
Q 3050 2419 3304 2112 
Q 3559 1806 3559 1356 
Q 3559 666 3084 287 
Q 2609 -91 1734 -91 
Q 1441 -91 1130 -33 
Q 819 25 488 141 
L 488 750 
Q 750 597 1062 519 
Q 1375 441 1716 441 
Q 2309 441 2620 675 
Q 2931 909 2931 1356 
Q 2931 1769 2642 2001 
Q 2353 2234 1838 2234 
L 1294 2234 
L 1294 2753 
L 1863 2753 
Q 2328 2753 2575 2939 
Q 2822 3125 2822 3475 
Q 2822 3834 2567 4026 
Q 2313 4219 1838 4219 
Q 1578 4219 1281 4162 
Q 984 4106 628 3988 
L 628 4550 
Q 988 4650 1302 4700 
Q 1616 4750 1894 4750 
Q 2613 4750 3031 4423 
Q 3450 4097 3450 3541 
Q 3450 3153 3228 2886 
Q 3006 2619 2597 2516 
z
" transform="scale(0.015625)"/>
      <path id="DejaVuSans-19" d="M 2113 2584 
Q 1688 2584 1439 2293 
Q 1191 2003 1191 1497 
Q 1191 994 1439 701 
Q 1688 409 2113 409 
Q 2538 409 2786 701 
Q 3034 994 3034 1497 
Q 3034 2003 2786 2293 
Q 2538 2584 2113 2584 
z
M 3366 4563 
L 3366 3988 
Q 3128 4100 2886 4159 
Q 2644 4219 2406 4219 
Q 1781 4219 1451 3797 
Q 1122 3375 1075 2522 
Q 1259 2794 1537 2939 
Q 1816 3084 2150 3084 
Q 2853 3084 3261 2657 
Q 3669 2231 3669 1497 
Q 3669 778 3244 343 
Q 2819 -91 2113 -91 
Q 1303 -91 875 529 
Q 447 1150 447 2328 
Q 447 3434 972 4092 
Q 1497 4750 2381 4750 
Q 2619 4750 2861 4703 
Q 3103 4656 3366 4563 
z
" transform="scale(0.015625)"/>
     </defs>
     <use xlink:href="#DejaVuSans-10"/>
     <use xlink:href="#DejaVuSans-13" transform="translate(36.078125 0)"/>
     <use xlink:href="#DejaVuSans-11" transform="translate(99.703125 0)"/>
     <use xlink:href="#DejaVuSans-13" transform="translate(131.484375 0)"/>
     <use xlink:href="#DejaVuSans-16" transform="translate(195.109375 0)"/>
     <use xlink:href="#DejaVuSans-19" transform="translate(258.734375 0)"/>
    </g>
   </g>
   <g id="LineCollection_3">
    <path d="M 209.191121 133.5 
L 238.603458 133.5 
" clip-path="url(#p8b09de0d2b)" style="fill: none; stroke: #898781"/>
   </g>
   <g id="text_14">
    <!-- -0.061 -->
    <g style="fill: #898781" transform="translate(317.092953 135.448242) scale(0.075 -0.075)">
     <use xlink:href="#DejaVuSans-10"/>
     <use xlink:href="#DejaVuSans-13" transform="translate(36.078125 0)"/>
     <use xlink:href="#DejaVuSans-11" transform="translate(99.703125 0)"/>
     <use xlink:href="#DejaVuSans-13" transform="translate(131.484375 0)"/>
     <use xlink:href="#DejaVuSans-19" transform="translate(195.109375 0)"/>
     <use xlink:href="#DejaVuSans-14" transform="translate(258.734375 0)"/>
    </g>
   </g>
   <g id="LineCollection_4">
    <path d="M 199.189346 158.1 
L 227.25757 158.1 
" clip-path="url(#p8b09de0d2b)" style="fill: none; stroke: #898781"/>
   </g>
   <g id="text_15">
    <!-- -0.115 -->
    <g style="fill: #898781" transform="translate(317.092953 160.048242) scale(0.075 -0.075)">
     <use xlink:href="#DejaVuSans-10"/>
     <use xlink:href="#DejaVuSans-13" transform="translate(36.078125 0)"/>
     <use xlink:href="#DejaVuSans-11" transform="translate(99.703125 0)"/>
     <use xlink:href="#DejaVuSans-14" transform="translate(131.484375 0)"/>
     <use xlink:href="#DejaVuSans-14" transform="translate(195.109375 0)"/>
     <use xlink:href="#DejaVuSans-18" transform="translate(258.734375 0)"/>
    </g>
   </g>
   <g id="LineCollection_5">
    <path d="M 187.803925 182.7 
L 214.725701 182.7 
" clip-path="url(#p8b09de0d2b)" style="fill: none; stroke: #898781"/>
   </g>
   <g id="text_16">
    <!-- -0.175 -->
    <g style="fill: #898781" transform="translate(317.092953 184.648242) scale(0.075 -0.075)">
     <use xlink:href="#DejaVuSans-10"/>
     <use xlink:href="#DejaVuSans-13" transform="translate(36.078125 0)"/>
     <use xlink:href="#DejaVuSans-11" transform="translate(99.703125 0)"/>
     <use xlink:href="#DejaVuSans-14" transform="translate(131.484375 0)"/>
     <use xlink:href="#DejaVuSans-1a" transform="translate(195.109375 0)"/>
     <use xlink:href="#DejaVuSans-18" transform="translate(258.734375 0)"/>
    </g>
   </g>
   <g id="LineCollection_6">
    <path d="M 183.336729 207.3 
L 211.602617 207.3 
" clip-path="url(#p8b09de0d2b)" style="fill: none; stroke: #898781"/>
   </g>
   <g id="text_17">
    <!-- -0.194 -->
    <g style="fill: #898781" transform="translate(317.092953 209.248242) scale(0.075 -0.075)">
     <defs>
      <path id="DejaVuSans-1c" d="M 703 97 
L 703 672 
Q 941 559 1184 500 
Q 1428 441 1663 441 
Q 2288 441 2617 861 
Q 2947 1281 2994 2138 
Q 2813 1869 2534 1725 
Q 2256 1581 1919 1581 
Q 1219 1581 811 2004 
Q 403 2428 403 3163 
Q 403 3881 828 4315 
Q 1253 4750 1959 4750 
Q 2769 4750 3195 4129 
Q 3622 3509 3622 2328 
Q 3622 1225 3098 567 
Q 2575 -91 1691 -91 
Q 1453 -91 1209 -44 
Q 966 3 703 97 
z
M 1959 2075 
Q 2384 2075 2632 2365 
Q 2881 2656 2881 3163 
Q 2881 3666 2632 3958 
Q 2384 4250 1959 4250 
Q 1534 4250 1286 3958 
Q 1038 3666 1038 3163 
Q 1038 2656 1286 2365 
Q 1534 2075 1959 2075 
z
" transform="scale(0.015625)"/>
      <path id="DejaVuSans-17" d="M 2419 4116 
L 825 1625 
L 2419 1625 
L 2419 4116 
z
M 2253 4666 
L 3047 4666 
L 3047 1625 
L 3713 1625 
L 3713 1100 
L 3047 1100 
L 3047 0 
L 2419 0 
L 2419 1100 
L 313 1100 
L 313 1709 
L 2253 4666 
z
" transform="scale(0.015625)"/>
     </defs>
     <use xlink:href="#DejaVuSans-10"/>
     <use xlink:href="#DejaVuSans-13" transform="translate(36.078125 0)"/>
     <use xlink:href="#DejaVuSans-11" transform="translate(99.703125 0)"/>
     <use xlink:href="#DejaVuSans-14" transform="translate(131.484375 0)"/>
     <use xlink:href="#DejaVuSans-1c" transform="translate(195.109375 0)"/>
     <use xlink:href="#DejaVuSans-17" transform="translate(258.734375 0)"/>
    </g>
   </g>
   <g id="line2d_18">
    <defs>
     <path id="m57fab8d6e7" d="M 0 3.5 
C 0.928211 3.5 1.81853 3.131218 2.474874 2.474874 
C 3.131218 1.81853 3.5 0.928211 3.5 0 
C 3.5 -0.928211 3.131218 -1.81853 2.474874 -2.474874 
C 1.81853 -3.131218 0.928211 -3.5 0 -3.5 
C -0.928211 -3.5 -1.81853 -3.131218 -2.474874 -2.474874 
C -3.131218 -1.81853 -3.5 -0.928211 -3.5 0 
C -3.5 0.928211 -3.131218 1.81853 -2.474874 2.474874 
C -1.81853 3.131218 -0.928211 3.5 0 3.5 
z
" style="stroke: #1a1a19; stroke-width: 1.5"/>
    </defs>
    <g clip-path="url(#p8b09de0d2b)">
     <use xlink:href="#m57fab8d6e7" x="235.895467" y="84.3" style="fill: #3987e5; stroke: #1a1a19; stroke-width: 1.5"/>
    </g>
   </g>
   <g id="line2d_19">
    <defs>
     <path id="mc1f6c596e4" d="M 0 3.5 
C 0.928211 3.5 1.81853 3.131218 2.474874 2.474874 
C 3.131218 1.81853 3.5 0.928211 3.5 0 
C 3.5 -0.928211 3.131218 -1.81853 2.474874 -2.474874 
C 1.81853 -3.131218 0.928211 -3.5 0 -3.5 
C -0.928211 -3.5 -1.81853 -3.131218 -2.474874 -2.474874 
C -3.131218 -1.81853 -3.5 -0.928211 -3.5 0 
C -3.5 0.928211 -3.131218 1.81853 -2.474874 2.474874 
C -1.81853 3.131218 -0.928211 3.5 0 3.5 
z
" style="stroke: #1a1a19; stroke-width: 1.5"/>
    </defs>
    <g clip-path="url(#p8b09de0d2b)">
     <use xlink:href="#mc1f6c596e4" x="228.858645" y="108.9" style="fill: #383835; stroke: #1a1a19; stroke-width: 1.5"/>
    </g>
   </g>
   <g id="line2d_20">
    <g clip-path="url(#p8b09de0d2b)">
     <use xlink:href="#mc1f6c596e4" x="223.89729" y="133.5" style="fill: #383835; stroke: #1a1a19; stroke-width: 1.5"/>
    </g>
   </g>
   <g id="line2d_21">
    <g clip-path="url(#p8b09de0d2b)">
     <use xlink:href="#mc1f6c596e4" x="213.223458" y="158.1" style="fill: #383835; stroke: #1a1a19; stroke-width: 1.5"/>
    </g>
   </g>
   <g id="line2d_22">
    <g clip-path="url(#p8b09de0d2b)">
     <use xlink:href="#mc1f6c596e4" x="201.264813" y="182.7" style="fill: #383835; stroke: #1a1a19; stroke-width: 1.5"/>
    </g>
   </g>
   <g id="line2d_23">
    <g clip-path="url(#p8b09de0d2b)">
     <use xlink:href="#mc1f6c596e4" x="197.469673" y="207.3" style="fill: #383835; stroke: #1a1a19; stroke-width: 1.5"/>
    </g>
   </g>
  </g>
  <g id="axes_2">
   <g id="patch_4">
    <path d="M 376.216822 219.6 
L 597.6 219.6 
L 597.6 72 
L 376.216822 72 
z
" style="fill: #1a1a19"/>
   </g>
   <g id="matplotlib.axis_3">
    <g id="xtick_6">
     <g id="line2d_24">
      <path d="M 376.216822 219.6 
L 376.216822 72 
" clip-path="url(#p7a7b6cad82)" style="fill: none; stroke: #2c2c2a; stroke-width: 0.6; stroke-linecap: round"/>
     </g>
     <g id="line2d_25">
      <g>
       <use xlink:href="#m0d6fe702cd" x="376.216822" y="219.6" style="fill: #898781; stroke: #898781; stroke-width: 0.8"/>
      </g>
     </g>
     <g id="text_18">
      <!-- 0.00 -->
      <g style="fill: #898781" transform="translate(367.310572 232.678125) scale(0.08 -0.08)">
       <use xlink:href="#DejaVuSans-13"/>
       <use xlink:href="#DejaVuSans-11" transform="translate(63.625 0)"/>
       <use xlink:href="#DejaVuSans-13" transform="translate(95.40625 0)"/>
       <use xlink:href="#DejaVuSans-13" transform="translate(159.03125 0)"/>
      </g>
     </g>
    </g>
    <g id="xtick_7">
     <g id="line2d_26">
      <path d="M 425.63271 219.6 
L 425.63271 72 
" clip-path="url(#p7a7b6cad82)" style="fill: none; stroke: #2c2c2a; stroke-width: 0.6; stroke-linecap: round"/>
     </g>
     <g id="line2d_27">
      <g>
       <use xlink:href="#m0d6fe702cd" x="425.63271" y="219.6" style="fill: #898781; stroke: #898781; stroke-width: 0.8"/>
      </g>
     </g>
     <g id="text_19">
      <!-- 0.25 -->
      <g style="fill: #898781" transform="translate(416.72646 232.678125) scale(0.08 -0.08)">
       <use xlink:href="#DejaVuSans-13"/>
       <use xlink:href="#DejaVuSans-11" transform="translate(63.625 0)"/>
       <use xlink:href="#DejaVuSans-15" transform="translate(95.40625 0)"/>
       <use xlink:href="#DejaVuSans-18" transform="translate(159.03125 0)"/>
      </g>
     </g>
    </g>
    <g id="xtick_8">
     <g id="line2d_28">
      <path d="M 475.048598 219.6 
L 475.048598 72 
" clip-path="url(#p7a7b6cad82)" style="fill: none; stroke: #2c2c2a; stroke-width: 0.6; stroke-linecap: round"/>
     </g>
     <g id="line2d_29">
      <g>
       <use xlink:href="#m0d6fe702cd" x="475.048598" y="219.6" style="fill: #898781; stroke: #898781; stroke-width: 0.8"/>
      </g>
     </g>
     <g id="text_20">
      <!-- 0.50 -->
      <g style="fill: #898781" transform="translate(466.142348 232.678125) scale(0.08 -0.08)">
       <use xlink:href="#DejaVuSans-13"/>
       <use xlink:href="#DejaVuSans-11" transform="translate(63.625 0)"/>
       <use xlink:href="#DejaVuSans-18" transform="translate(95.40625 0)"/>
       <use xlink:href="#DejaVuSans-13" transform="translate(159.03125 0)"/>
      </g>
     </g>
    </g>
    <g id="xtick_9">
     <g id="line2d_30">
      <path d="M 524.464486 219.6 
L 524.464486 72 
" clip-path="url(#p7a7b6cad82)" style="fill: none; stroke: #2c2c2a; stroke-width: 0.6; stroke-linecap: round"/>
     </g>
     <g id="line2d_31">
      <g>
       <use xlink:href="#m0d6fe702cd" x="524.464486" y="219.6" style="fill: #898781; stroke: #898781; stroke-width: 0.8"/>
      </g>
     </g>
     <g id="text_21">
      <!-- 0.75 -->
      <g style="fill: #898781" transform="translate(515.558236 232.678125) scale(0.08 -0.08)">
       <use xlink:href="#DejaVuSans-13"/>
       <use xlink:href="#DejaVuSans-11" transform="translate(63.625 0)"/>
       <use xlink:href="#DejaVuSans-1a" transform="translate(95.40625 0)"/>
       <use xlink:href="#DejaVuSans-18" transform="translate(159.03125 0)"/>
      </g>
     </g>
    </g>
    <g id="xtick_10">
     <g id="line2d_32">
      <path d="M 573.880374 219.6 
L 573.880374 72 
" clip-path="url(#p7a7b6cad82)" style="fill: none; stroke: #2c2c2a; stroke-width: 0.6; stroke-linecap: round"/>
     </g>
     <g id="line2d_33">
      <g>
       <use xlink:href="#m0d6fe702cd" x="573.880374" y="219.6" style="fill: #898781; stroke: #898781; stroke-width: 0.8"/>
      </g>
     </g>
     <g id="text_22">
      <!-- 1.00 -->
      <g style="fill: #898781" transform="translate(564.974124 232.678125) scale(0.08 -0.08)">
       <use xlink:href="#DejaVuSans-14"/>
       <use xlink:href="#DejaVuSans-11" transform="translate(63.625 0)"/>
       <use xlink:href="#DejaVuSans-13" transform="translate(95.40625 0)"/>
       <use xlink:href="#DejaVuSans-13" transform="translate(159.03125 0)"/>
      </g>
     </g>
    </g>
    <g id="text_23">
     <!-- nDCG@10   ·   FTS · BM25 -->
     <g style="fill: #c3c2b7" transform="translate(428.623567 245.437891) scale(0.09 -0.09)">
      <defs>
       <path id="DejaVuSans-29" d="M 628 4666 
L 3309 4666 
L 3309 4134 
L 1259 4134 
L 1259 2759 
L 3109 2759 
L 3109 2228 
L 1259 2228 
L 1259 0 
L 628 0 
L 628 4666 
z
" transform="scale(0.015625)"/>
       <path id="DejaVuSans-37" d="M -19 4666 
L 3928 4666 
L 3928 4134 
L 2272 4134 
L 2272 0 
L 1638 0 
L 1638 4134 
L -19 4134 
L -19 4666 
z
" transform="scale(0.015625)"/>
       <path id="DejaVuSans-36" d="M 3425 4513 
L 3425 3897 
Q 3066 4069 2747 4153 
Q 2428 4238 2131 4238 
Q 1616 4238 1336 4038 
Q 1056 3838 1056 3469 
Q 1056 3159 1242 3001 
Q 1428 2844 1947 2747 
L 2328 2669 
Q 3034 2534 3370 2195 
Q 3706 1856 3706 1288 
Q 3706 609 3251 259 
Q 2797 -91 1919 -91 
Q 1588 -91 1214 -16 
Q 841 59 441 206 
L 441 856 
Q 825 641 1194 531 
Q 1563 422 1919 422 
Q 2459 422 2753 634 
Q 3047 847 3047 1241 
Q 3047 1584 2836 1778 
Q 2625 1972 2144 2069 
L 1759 2144 
Q 1053 2284 737 2584 
Q 422 2884 422 3419 
Q 422 4038 858 4394 
Q 1294 4750 2059 4750 
Q 2388 4750 2728 4690 
Q 3069 4631 3425 4513 
z
" transform="scale(0.015625)"/>
       <path id="DejaVuSans-25" d="M 1259 2228 
L 1259 519 
L 2272 519 
Q 2781 519 3026 730 
Q 3272 941 3272 1375 
Q 3272 1813 3026 2020 
Q 2781 2228 2272 2228 
L 1259 2228 
z
M 1259 4147 
L 1259 2741 
L 2194 2741 
Q 2656 2741 2882 2914 
Q 3109 3088 3109 3444 
Q 3109 3797 2882 3972 
Q 2656 4147 2194 4147 
L 1259 4147 
z
M 628 4666 
L 2241 4666 
Q 2963 4666 3353 4366 
Q 3744 4066 3744 3513 
Q 3744 3084 3544 2831 
Q 3344 2578 2956 2516 
Q 3422 2416 3680 2098 
Q 3938 1781 3938 1306 
Q 3938 681 3513 340 
Q 3088 0 2303 0 
L 628 0 
L 628 4666 
z
" transform="scale(0.015625)"/>
       <path id="DejaVuSans-30" d="M 628 4666 
L 1569 4666 
L 2759 1491 
L 3956 4666 
L 4897 4666 
L 4897 0 
L 4281 0 
L 4281 4097 
L 3078 897 
L 2444 897 
L 1241 4097 
L 1241 0 
L 628 0 
L 628 4666 
z
" transform="scale(0.015625)"/>
      </defs>
      <use xlink:href="#DejaVuSans-51"/>
      <use xlink:href="#DejaVuSans-27" transform="translate(63.375 0)"/>
      <use xlink:href="#DejaVuSans-26" transform="translate(140.375 0)"/>
      <use xlink:href="#DejaVuSans-2a" transform="translate(210.203125 0)"/>
      <use xlink:href="#DejaVuSans-23" transform="translate(287.6875 0)"/>
      <use xlink:href="#DejaVuSans-14" transform="translate(387.6875 0)"/>
      <use xlink:href="#DejaVuSans-13" transform="translate(451.3125 0)"/>
      <use xlink:href="#DejaVuSans-3" transform="translate(514.9375 0)"/>
      <use xlink:href="#DejaVuSans-3" transform="translate(546.71875 0)"/>
      <use xlink:href="#DejaVuSans-3" transform="translate(578.5 0)"/>
      <use xlink:href="#DejaVuSans-79" transform="translate(610.28125 0)"/>
      <use xlink:href="#DejaVuSans-3" transform="translate(642.0625 0)"/>
      <use xlink:href="#DejaVuSans-3" transform="translate(673.84375 0)"/>
      <use xlink:href="#DejaVuSans-3" transform="translate(705.625 0)"/>
      <use xlink:href="#DejaVuSans-29" transform="translate(737.40625 0)"/>
      <use xlink:href="#DejaVuSans-37" transform="translate(793.171875 0)"/>
      <use xlink:href="#DejaVuSans-36" transform="translate(854.25 0)"/>
      <use xlink:href="#DejaVuSans-3" transform="translate(917.734375 0)"/>
      <use xlink:href="#DejaVuSans-79" transform="translate(949.515625 0)"/>
      <use xlink:href="#DejaVuSans-3" transform="translate(981.296875 0)"/>
      <use xlink:href="#DejaVuSans-25" transform="translate(1013.078125 0)"/>
      <use xlink:href="#DejaVuSans-30" transform="translate(1081.6875 0)"/>
      <use xlink:href="#DejaVuSans-15" transform="translate(1167.96875 0)"/>
      <use xlink:href="#DejaVuSans-18" transform="translate(1231.59375 0)"/>
     </g>
    </g>
   </g>
   <g id="matplotlib.axis_4">
    <g id="ytick_7">
     <g id="line2d_34"/>
    </g>
    <g id="ytick_8">
     <g id="line2d_35"/>
    </g>
    <g id="ytick_9">
     <g id="line2d_36"/>
    </g>
    <g id="ytick_10">
     <g id="line2d_37"/>
    </g>
    <g id="ytick_11">
     <g id="line2d_38"/>
    </g>
    <g id="ytick_12">
     <g id="line2d_39"/>
    </g>
   </g>
   <g id="line2d_40">
    <path d="M 515.589393 219.6 
L 515.589393 72 
" clip-path="url(#p7a7b6cad82)" style="fill: none; stroke-dasharray: 3.6,2.7; stroke-dashoffset: 0; stroke: #898781; stroke-width: 0.9"/>
   </g>
   <g id="patch_5">
    <path d="M 376.216822 219.6 
L 597.6 219.6 
" style="fill: none; stroke: #383835; stroke-width: 0.8; stroke-linejoin: miter; stroke-linecap: square"/>
   </g>
   <g id="LineCollection_7">
    <path d="M 503.45285 84.3 
L 527.725935 84.3 
" clip-path="url(#p7a7b6cad82)" style="fill: none; stroke: #898781"/>
   </g>
   <g id="LineCollection_8">
    <path d="M 496.396262 108.9 
L 521.104206 108.9 
" clip-path="url(#p7a7b6cad82)" style="fill: none; stroke: #898781"/>
   </g>
   <g id="text_24">
    <!-- -0.035 -->
    <g style="fill: #898781" transform="translate(569.469776 110.848242) scale(0.075 -0.075)">
     <use xlink:href="#DejaVuSans-10"/>
     <use xlink:href="#DejaVuSans-13" transform="translate(36.078125 0)"/>
     <use xlink:href="#DejaVuSans-11" transform="translate(99.703125 0)"/>
     <use xlink:href="#DejaVuSans-13" transform="translate(131.484375 0)"/>
     <use xlink:href="#DejaVuSans-16" transform="translate(195.109375 0)"/>
     <use xlink:href="#DejaVuSans-18" transform="translate(258.734375 0)"/>
    </g>
   </g>
   <g id="LineCollection_9">
    <path d="M 487.896729 133.5 
L 514.106916 133.5 
" clip-path="url(#p7a7b6cad82)" style="fill: none; stroke: #898781"/>
   </g>
   <g id="text_25">
    <!-- -0.074 -->
    <g style="fill: #898781" transform="translate(569.469776 135.448242) scale(0.075 -0.075)">
     <use xlink:href="#DejaVuSans-10"/>
     <use xlink:href="#DejaVuSans-13" transform="translate(36.078125 0)"/>
     <use xlink:href="#DejaVuSans-11" transform="translate(99.703125 0)"/>
     <use xlink:href="#DejaVuSans-13" transform="translate(131.484375 0)"/>
     <use xlink:href="#DejaVuSans-1a" transform="translate(195.109375 0)"/>
     <use xlink:href="#DejaVuSans-17" transform="translate(258.734375 0)"/>
    </g>
   </g>
   <g id="LineCollection_10">
    <path d="M 479.496028 158.1 
L 505.469019 158.1 
" clip-path="url(#p7a7b6cad82)" style="fill: none; stroke: #898781"/>
   </g>
   <g id="text_26">
    <!-- -0.117 -->
    <g style="fill: #898781" transform="translate(569.469776 160.048242) scale(0.075 -0.075)">
     <use xlink:href="#DejaVuSans-10"/>
     <use xlink:href="#DejaVuSans-13" transform="translate(36.078125 0)"/>
     <use xlink:href="#DejaVuSans-11" transform="translate(99.703125 0)"/>
     <use xlink:href="#DejaVuSans-14" transform="translate(131.484375 0)"/>
     <use xlink:href="#DejaVuSans-14" transform="translate(195.109375 0)"/>
     <use xlink:href="#DejaVuSans-1a" transform="translate(258.734375 0)"/>
    </g>
   </g>
   <g id="text_27">
    <!-- not run -->
    <g style="fill: #898781" transform="translate(382.146729 184.648242) scale(0.075 -0.075)">
     <defs>
      <path id="DejaVuSans-Oblique-51" d="M 3566 2113 
L 3156 0 
L 2578 0 
L 2988 2091 
Q 3016 2238 3031 2350 
Q 3047 2463 3047 2528 
Q 3047 2791 2881 2937 
Q 2716 3084 2419 3084 
Q 1956 3084 1622 2776 
Q 1288 2469 1184 1941 
L 800 0 
L 225 0 
L 903 3500 
L 1478 3500 
L 1363 2950 
Q 1603 3253 1940 3418 
Q 2278 3584 2650 3584 
Q 3113 3584 3367 3334 
Q 3622 3084 3622 2631 
Q 3622 2519 3608 2391 
Q 3594 2263 3566 2113 
z
" transform="scale(0.015625)"/>
      <path id="DejaVuSans-Oblique-52" d="M 1625 -91 
Q 1009 -91 651 289 
Q 294 669 294 1325 
Q 294 1706 417 2101 
Q 541 2497 738 2766 
Q 1047 3184 1428 3384 
Q 1809 3584 2291 3584 
Q 2888 3584 3255 3212 
Q 3622 2841 3622 2241 
Q 3622 1825 3500 1412 
Q 3378 1000 3181 728 
Q 2875 309 2494 109 
Q 2113 -91 1625 -91 
z
M 891 1344 
Q 891 869 1089 633 
Q 1288 397 1691 397 
Q 2269 397 2648 901 
Q 3028 1406 3028 2181 
Q 3028 2634 2825 2865 
Q 2622 3097 2228 3097 
Q 1903 3097 1650 2945 
Q 1397 2794 1197 2484 
Q 1050 2253 970 1956 
Q 891 1659 891 1344 
z
" transform="scale(0.015625)"/>
      <path id="DejaVuSans-Oblique-57" d="M 2706 3500 
L 2619 3053 
L 1472 3053 
L 1100 1153 
Q 1081 1047 1072 975 
Q 1063 903 1063 863 
Q 1063 663 1183 572 
Q 1303 481 1569 481 
L 2150 481 
L 2053 0 
L 1503 0 
Q 991 0 739 200 
Q 488 400 488 806 
Q 488 878 497 964 
Q 506 1050 525 1153 
L 897 3053 
L 409 3053 
L 500 3500 
L 978 3500 
L 1172 4494 
L 1747 4494 
L 1556 3500 
L 2706 3500 
z
" transform="scale(0.015625)"/>
      <path id="DejaVuSans-Oblique-3" transform="scale(0.015625)"/>
      <path id="DejaVuSans-Oblique-55" d="M 2853 2969 
Q 2766 3016 2653 3041 
Q 2541 3066 2413 3066 
Q 1953 3066 1609 2717 
Q 1266 2369 1153 1784 
L 800 0 
L 225 0 
L 909 3500 
L 1484 3500 
L 1375 2956 
Q 1603 3259 1920 3421 
Q 2238 3584 2597 3584 
Q 2691 3584 2781 3573 
Q 2872 3563 2963 3538 
L 2853 2969 
z
" transform="scale(0.015625)"/>
      <path id="DejaVuSans-Oblique-58" d="M 428 1388 
L 838 3500 
L 1416 3500 
L 1006 1409 
Q 975 1256 961 1147 
Q 947 1038 947 966 
Q 947 700 1109 554 
Q 1272 409 1569 409 
Q 2031 409 2368 721 
Q 2706 1034 2809 1563 
L 3194 3500 
L 3769 3500 
L 3091 0 
L 2516 0 
L 2631 550 
Q 2388 244 2052 76 
Q 1716 -91 1338 -91 
Q 878 -91 622 161 
Q 366 413 366 863 
Q 366 956 381 1097 
Q 397 1238 428 1388 
z
" transform="scale(0.015625)"/>
     </defs>
     <use xlink:href="#DejaVuSans-Oblique-51"/>
     <use xlink:href="#DejaVuSans-Oblique-52" transform="translate(63.375 0)"/>
     <use xlink:href="#DejaVuSans-Oblique-57" transform="translate(124.5625 0)"/>
     <use xlink:href="#DejaVuSans-Oblique-3" transform="translate(163.765625 0)"/>
     <use xlink:href="#DejaVuSans-Oblique-55" transform="translate(195.546875 0)"/>
     <use xlink:href="#DejaVuSans-Oblique-58" transform="translate(236.65625 0)"/>
     <use xlink:href="#DejaVuSans-Oblique-51" transform="translate(300.03125 0)"/>
    </g>
   </g>
   <g id="LineCollection_11">
    <path d="M 462.89229 207.3 
L 490.248925 207.3 
" clip-path="url(#p7a7b6cad82)" style="fill: none; stroke: #898781"/>
   </g>
   <g id="text_28">
    <!-- -0.197 -->
    <g style="fill: #898781" transform="translate(569.469776 209.248242) scale(0.075 -0.075)">
     <use xlink:href="#DejaVuSans-10"/>
     <use xlink:href="#DejaVuSans-13" transform="translate(36.078125 0)"/>
     <use xlink:href="#DejaVuSans-11" transform="translate(99.703125 0)"/>
     <use xlink:href="#DejaVuSans-14" transform="translate(131.484375 0)"/>
     <use xlink:href="#DejaVuSans-1c" transform="translate(195.109375 0)"/>
     <use xlink:href="#DejaVuSans-1a" transform="translate(258.734375 0)"/>
    </g>
   </g>
   <g id="line2d_41">
    <g clip-path="url(#p7a7b6cad82)">
     <use xlink:href="#m57fab8d6e7" x="515.589393" y="84.3" style="fill: #3987e5; stroke: #1a1a19; stroke-width: 1.5"/>
    </g>
   </g>
   <g id="line2d_42">
    <g clip-path="url(#p7a7b6cad82)">
     <use xlink:href="#mc1f6c596e4" x="508.750234" y="108.9" style="fill: #383835; stroke: #1a1a19; stroke-width: 1.5"/>
    </g>
   </g>
   <g id="line2d_43">
    <g clip-path="url(#p7a7b6cad82)">
     <use xlink:href="#mc1f6c596e4" x="501.001822" y="133.5" style="fill: #383835; stroke: #1a1a19; stroke-width: 1.5"/>
    </g>
   </g>
   <g id="line2d_44">
    <g clip-path="url(#p7a7b6cad82)">
     <use xlink:href="#mc1f6c596e4" x="492.482523" y="158.1" style="fill: #383835; stroke: #1a1a19; stroke-width: 1.5"/>
    </g>
   </g>
   <g id="line2d_45">
    <g clip-path="url(#p7a7b6cad82)">
     <use xlink:href="#mc1f6c596e4" x="476.570607" y="207.3" style="fill: #383835; stroke: #1a1a19; stroke-width: 1.5"/>
    </g>
   </g>
  </g>
  <g id="text_29">
   <!-- Query transformations, at k=10 -->
   <g style="fill: #ffffff" transform="translate(61.92 24.847559) scale(0.125 -0.125)">
    <defs>
     <path id="DejaVuSans-Bold-34" d="M 2847 -84 
L 2753 -84 
Q 1600 -84 959 553 
Q 319 1191 319 2328 
Q 319 3463 958 4106 
Q 1597 4750 2719 4750 
Q 3853 4750 4486 4112 
Q 5119 3475 5119 2328 
Q 5119 1541 4783 972 
Q 4447 403 3816 116 
L 4756 -934 
L 3609 -934 
L 2847 -84 
z
M 2719 3878 
Q 2169 3878 1866 3472 
Q 1563 3066 1563 2328 
Q 1563 1578 1859 1179 
Q 2156 781 2719 781 
Q 3272 781 3575 1187 
Q 3878 1594 3878 2328 
Q 3878 3066 3575 3472 
Q 3272 3878 2719 3878 
z
" transform="scale(0.015625)"/>
     <path id="DejaVuSans-Bold-58" d="M 500 1363 
L 500 3500 
L 1625 3500 
L 1625 3150 
Q 1625 2866 1622 2436 
Q 1619 2006 1619 1863 
Q 1619 1441 1641 1255 
Q 1663 1069 1716 984 
Q 1784 875 1895 815 
Q 2006 756 2150 756 
Q 2500 756 2700 1025 
Q 2900 1294 2900 1772 
L 2900 3500 
L 4019 3500 
L 4019 0 
L 2900 0 
L 2900 506 
Q 2647 200 2364 54 
Q 2081 -91 1741 -91 
Q 1134 -91 817 281 
Q 500 653 500 1363 
z
" transform="scale(0.015625)"/>
     <path id="DejaVuSans-Bold-48" d="M 4031 1759 
L 4031 1441 
L 1416 1441 
Q 1456 1047 1700 850 
Q 1944 653 2381 653 
Q 2734 653 3104 758 
Q 3475 863 3866 1075 
L 3866 213 
Q 3469 63 3072 -14 
Q 2675 -91 2278 -91 
Q 1328 -91 801 392 
Q 275 875 275 1747 
Q 275 2603 792 3093 
Q 1309 3584 2216 3584 
Q 3041 3584 3536 3087 
Q 4031 2591 4031 1759 
z
M 2881 2131 
Q 2881 2450 2695 2645 
Q 2509 2841 2209 2841 
Q 1884 2841 1681 2658 
Q 1478 2475 1428 2131 
L 2881 2131 
z
" transform="scale(0.015625)"/>
     <path id="DejaVuSans-Bold-55" d="M 3138 2547 
Q 2991 2616 2845 2648 
Q 2700 2681 2553 2681 
Q 2122 2681 1889 2404 
Q 1656 2128 1656 1613 
L 1656 0 
L 538 0 
L 538 3500 
L 1656 3500 
L 1656 2925 
Q 1872 3269 2151 3426 
Q 2431 3584 2822 3584 
Q 2878 3584 2943 3579 
Q 3009 3575 3134 3559 
L 3138 2547 
z
" transform="scale(0.015625)"/>
     <path id="DejaVuSans-Bold-5c" d="M 78 3500 
L 1197 3500 
L 2138 1125 
L 2938 3500 
L 4056 3500 
L 2584 -331 
Q 2363 -916 2067 -1148 
Q 1772 -1381 1288 -1381 
L 641 -1381 
L 641 -647 
L 991 -647 
Q 1275 -647 1404 -556 
Q 1534 -466 1606 -231 
L 1638 -134 
L 78 3500 
z
" transform="scale(0.015625)"/>
     <path id="DejaVuSans-Bold-3" transform="scale(0.015625)"/>
     <path id="DejaVuSans-Bold-57" d="M 1759 4494 
L 1759 3500 
L 2913 3500 
L 2913 2700 
L 1759 2700 
L 1759 1216 
Q 1759 972 1856 886 
Q 1953 800 2241 800 
L 2816 800 
L 2816 0 
L 1856 0 
Q 1194 0 917 276 
Q 641 553 641 1216 
L 641 2700 
L 84 2700 
L 84 3500 
L 641 3500 
L 641 4494 
L 1759 4494 
z
" transform="scale(0.015625)"/>
     <path id="DejaVuSans-Bold-44" d="M 2106 1575 
Q 1756 1575 1579 1456 
Q 1403 1338 1403 1106 
Q 1403 894 1545 773 
Q 1688 653 1941 653 
Q 2256 653 2472 879 
Q 2688 1106 2688 1447 
L 2688 1575 
L 2106 1575 
z
M 3816 1997 
L 3816 0 
L 2688 0 
L 2688 519 
Q 2463 200 2181 54 
Q 1900 -91 1497 -91 
Q 953 -91 614 226 
Q 275 544 275 1050 
Q 275 1666 698 1953 
Q 1122 2241 2028 2241 
L 2688 2241 
L 2688 2328 
Q 2688 2594 2478 2717 
Q 2269 2841 1825 2841 
Q 1466 2841 1156 2769 
Q 847 2697 581 2553 
L 581 3406 
Q 941 3494 1303 3539 
Q 1666 3584 2028 3584 
Q 2975 3584 3395 3211 
Q 3816 2838 3816 1997 
z
" transform="scale(0.015625)"/>
     <path id="DejaVuSans-Bold-51" d="M 4056 2131 
L 4056 0 
L 2931 0 
L 2931 347 
L 2931 1631 
Q 2931 2084 2911 2256 
Q 2891 2428 2841 2509 
Q 2775 2619 2662 2680 
Q 2550 2741 2406 2741 
Q 2056 2741 1856 2470 
Q 1656 2200 1656 1722 
L 1656 0 
L 538 0 
L 538 3500 
L 1656 3500 
L 1656 2988 
Q 1909 3294 2193 3439 
Q 2478 3584 2822 3584 
Q 3428 3584 3742 3212 
Q 4056 2841 4056 2131 
z
" transform="scale(0.015625)"/>
     <path id="DejaVuSans-Bold-56" d="M 3272 3391 
L 3272 2541 
Q 2913 2691 2578 2766 
Q 2244 2841 1947 2841 
Q 1628 2841 1473 2761 
Q 1319 2681 1319 2516 
Q 1319 2381 1436 2309 
Q 1553 2238 1856 2203 
L 2053 2175 
Q 2913 2066 3209 1816 
Q 3506 1566 3506 1031 
Q 3506 472 3093 190 
Q 2681 -91 1863 -91 
Q 1516 -91 1145 -36 
Q 775 19 384 128 
L 384 978 
Q 719 816 1070 734 
Q 1422 653 1784 653 
Q 2113 653 2278 743 
Q 2444 834 2444 1013 
Q 2444 1163 2330 1236 
Q 2216 1309 1875 1350 
L 1678 1375 
Q 931 1469 631 1722 
Q 331 1975 331 2491 
Q 331 3047 712 3315 
Q 1094 3584 1881 3584 
Q 2191 3584 2531 3537 
Q 2872 3491 3272 3391 
z
" transform="scale(0.015625)"/>
     <path id="DejaVuSans-Bold-49" d="M 2841 4863 
L 2841 4128 
L 2222 4128 
Q 1984 4128 1890 4042 
Q 1797 3956 1797 3744 
L 1797 3500 
L 2753 3500 
L 2753 2700 
L 1797 2700 
L 1797 0 
L 678 0 
L 678 2700 
L 122 2700 
L 122 3500 
L 678 3500 
L 678 3744 
Q 678 4316 997 4589 
Q 1316 4863 1984 4863 
L 2841 4863 
z
" transform="scale(0.015625)"/>
     <path id="DejaVuSans-Bold-52" d="M 2203 2784 
Q 1831 2784 1636 2517 
Q 1441 2250 1441 1747 
Q 1441 1244 1636 976 
Q 1831 709 2203 709 
Q 2569 709 2762 976 
Q 2956 1244 2956 1747 
Q 2956 2250 2762 2517 
Q 2569 2784 2203 2784 
z
M 2203 3584 
Q 3106 3584 3614 3096 
Q 4122 2609 4122 1747 
Q 4122 884 3614 396 
Q 3106 -91 2203 -91 
Q 1297 -91 786 396 
Q 275 884 275 1747 
Q 275 2609 786 3096 
Q 1297 3584 2203 3584 
z
" transform="scale(0.015625)"/>
     <path id="DejaVuSans-Bold-50" d="M 3781 2919 
Q 3994 3244 4286 3414 
Q 4578 3584 4928 3584 
Q 5531 3584 5847 3212 
Q 6163 2841 6163 2131 
L 6163 0 
L 5038 0 
L 5038 1825 
Q 5041 1866 5042 1909 
Q 5044 1953 5044 2034 
Q 5044 2406 4934 2573 
Q 4825 2741 4581 2741 
Q 4263 2741 4089 2478 
Q 3916 2216 3909 1719 
L 3909 0 
L 2784 0 
L 2784 1825 
Q 2784 2406 2684 2573 
Q 2584 2741 2328 2741 
Q 2006 2741 1831 2477 
Q 1656 2213 1656 1722 
L 1656 0 
L 531 0 
L 531 3500 
L 1656 3500 
L 1656 2988 
Q 1863 3284 2130 3434 
Q 2397 3584 2719 3584 
Q 3081 3584 3359 3409 
Q 3638 3234 3781 2919 
z
" transform="scale(0.015625)"/>
     <path id="DejaVuSans-Bold-4c" d="M 538 3500 
L 1656 3500 
L 1656 0 
L 538 0 
L 538 3500 
z
M 538 4863 
L 1656 4863 
L 1656 3950 
L 538 3950 
L 538 4863 
z
" transform="scale(0.015625)"/>
     <path id="DejaVuSans-Bold-f" d="M 653 1209 
L 1778 1209 
L 1778 256 
L 1006 -909 
L 341 -909 
L 653 256 
L 653 1209 
z
" transform="scale(0.015625)"/>
     <path id="DejaVuSans-Bold-4e" d="M 538 4863 
L 1656 4863 
L 1656 2216 
L 2944 3500 
L 4244 3500 
L 2534 1894 
L 4378 0 
L 3022 0 
L 1656 1459 
L 1656 0 
L 538 0 
L 538 4863 
z
" transform="scale(0.015625)"/>
     <path id="DejaVuSans-Bold-20" d="M 678 3084 
L 4684 3084 
L 4684 2350 
L 678 2350 
L 678 3084 
z
M 678 1663 
L 4684 1663 
L 4684 922 
L 678 922 
L 678 1663 
z
" transform="scale(0.015625)"/>
     <path id="DejaVuSans-Bold-14" d="M 750 831 
L 1813 831 
L 1813 3847 
L 722 3622 
L 722 4441 
L 1806 4666 
L 2950 4666 
L 2950 831 
L 4013 831 
L 4013 0 
L 750 0 
L 750 831 
z
" transform="scale(0.015625)"/>
     <path id="DejaVuSans-Bold-13" d="M 2944 2338 
Q 2944 3213 2780 3570 
Q 2616 3928 2228 3928 
Q 1841 3928 1675 3570 
Q 1509 3213 1509 2338 
Q 1509 1453 1675 1090 
Q 1841 728 2228 728 
Q 2613 728 2778 1090 
Q 2944 1453 2944 2338 
z
M 4147 2328 
Q 4147 1169 3647 539 
Q 3147 -91 2228 -91 
Q 1306 -91 806 539 
Q 306 1169 306 2328 
Q 306 3491 806 4120 
Q 1306 4750 2228 4750 
Q 3147 4750 3647 4120 
Q 4147 3491 4147 2328 
z
" transform="scale(0.015625)"/>
    </defs>
    <use xlink:href="#DejaVuSans-Bold-34"/>
    <use xlink:href="#DejaVuSans-Bold-58" transform="translate(85.015625 0)"/>
    <use xlink:href="#DejaVuSans-Bold-48" transform="translate(156.203125 0)"/>
    <use xlink:href="#DejaVuSans-Bold-55" transform="translate(224.03125 0)"/>
    <use xlink:href="#DejaVuSans-Bold-5c" transform="translate(273.34375 0)"/>
    <use xlink:href="#DejaVuSans-Bold-3" transform="translate(338.53125 0)"/>
    <use xlink:href="#DejaVuSans-Bold-57" transform="translate(373.34375 0)"/>
    <use xlink:href="#DejaVuSans-Bold-55" transform="translate(421.140625 0)"/>
    <use xlink:href="#DejaVuSans-Bold-44" transform="translate(470.453125 0)"/>
    <use xlink:href="#DejaVuSans-Bold-51" transform="translate(537.9375 0)"/>
    <use xlink:href="#DejaVuSans-Bold-56" transform="translate(609.125 0)"/>
    <use xlink:href="#DejaVuSans-Bold-49" transform="translate(668.640625 0)"/>
    <use xlink:href="#DejaVuSans-Bold-52" transform="translate(712.140625 0)"/>
    <use xlink:href="#DejaVuSans-Bold-55" transform="translate(780.84375 0)"/>
    <use xlink:href="#DejaVuSans-Bold-50" transform="translate(830.15625 0)"/>
    <use xlink:href="#DejaVuSans-Bold-44" transform="translate(934.359375 0)"/>
    <use xlink:href="#DejaVuSans-Bold-57" transform="translate(1001.84375 0)"/>
    <use xlink:href="#DejaVuSans-Bold-4c" transform="translate(1049.640625 0)"/>
    <use xlink:href="#DejaVuSans-Bold-52" transform="translate(1083.921875 0)"/>
    <use xlink:href="#DejaVuSans-Bold-51" transform="translate(1152.625 0)"/>
    <use xlink:href="#DejaVuSans-Bold-56" transform="translate(1223.8125 0)"/>
    <use xlink:href="#DejaVuSans-Bold-f" transform="translate(1283.328125 0)"/>
    <use xlink:href="#DejaVuSans-Bold-3" transform="translate(1321.3125 0)"/>
    <use xlink:href="#DejaVuSans-Bold-44" transform="translate(1356.125 0)"/>
    <use xlink:href="#DejaVuSans-Bold-57" transform="translate(1423.609375 0)"/>
    <use xlink:href="#DejaVuSans-Bold-3" transform="translate(1471.40625 0)"/>
    <use xlink:href="#DejaVuSans-Bold-4e" transform="translate(1506.21875 0)"/>
    <use xlink:href="#DejaVuSans-Bold-20" transform="translate(1572.71875 0)"/>
    <use xlink:href="#DejaVuSans-Bold-14" transform="translate(1656.515625 0)"/>
    <use xlink:href="#DejaVuSans-Bold-13" transform="translate(1726.09375 0)"/>
   </g>
  </g>
  <g id="text_30">
   <!-- Every arm costs nDCG against the untransformed question, in both retrievers and at every depth measured. -->
   <g style="fill: #c3c2b7" transform="translate(61.92 40.498242) scale(0.09 -0.09)">
    <defs>
     <path id="DejaVuSans-59" d="M 191 3500 
L 800 3500 
L 1894 563 
L 2988 3500 
L 3597 3500 
L 2284 0 
L 1503 0 
L 191 3500 
z
" transform="scale(0.015625)"/>
     <path id="DejaVuSans-4b" d="M 3513 2113 
L 3513 0 
L 2938 0 
L 2938 2094 
Q 2938 2591 2744 2837 
Q 2550 3084 2163 3084 
Q 1697 3084 1428 2787 
Q 1159 2491 1159 1978 
L 1159 0 
L 581 0 
L 581 4863 
L 1159 4863 
L 1159 2956 
Q 1366 3272 1645 3428 
Q 1925 3584 2291 3584 
Q 2894 3584 3203 3211 
Q 3513 2838 3513 2113 
z
" transform="scale(0.015625)"/>
     <path id="DejaVuSans-49" d="M 2375 4863 
L 2375 4384 
L 1825 4384 
Q 1516 4384 1395 4259 
Q 1275 4134 1275 3809 
L 1275 3500 
L 2222 3500 
L 2222 3053 
L 1275 3053 
L 1275 0 
L 697 0 
L 697 3053 
L 147 3053 
L 147 3500 
L 697 3500 
L 697 3744 
Q 697 4328 969 4595 
Q 1241 4863 1831 4863 
L 2375 4863 
z
" transform="scale(0.015625)"/>
     <path id="DejaVuSans-f" d="M 750 794 
L 1409 794 
L 1409 256 
L 897 -744 
L 494 -744 
L 750 256 
L 750 794 
z
" transform="scale(0.015625)"/>
     <path id="DejaVuSans-45" d="M 3116 1747 
Q 3116 2381 2855 2742 
Q 2594 3103 2138 3103 
Q 1681 3103 1420 2742 
Q 1159 2381 1159 1747 
Q 1159 1113 1420 752 
Q 1681 391 2138 391 
Q 2594 391 2855 752 
Q 3116 1113 3116 1747 
z
M 1159 2969 
Q 1341 3281 1617 3432 
Q 1894 3584 2278 3584 
Q 2916 3584 3314 3078 
Q 3713 2572 3713 1747 
Q 3713 922 3314 415 
Q 2916 -91 2278 -91 
Q 1894 -91 1617 61 
Q 1341 213 1159 525 
L 1159 0 
L 581 0 
L 581 4863 
L 1159 4863 
L 1159 2969 
z
" transform="scale(0.015625)"/>
    </defs>
    <use xlink:href="#DejaVuSans-28"/>
    <use xlink:href="#DejaVuSans-59" transform="translate(63.1875 0)"/>
    <use xlink:href="#DejaVuSans-48" transform="translate(122.375 0)"/>
    <use xlink:href="#DejaVuSans-55" transform="translate(183.90625 0)"/>
    <use xlink:href="#DejaVuSans-5c" transform="translate(225.015625 0)"/>
    <use xlink:href="#DejaVuSans-3" transform="translate(284.203125 0)"/>
    <use xlink:href="#DejaVuSans-44" transform="translate(315.984375 0)"/>
    <use xlink:href="#DejaVuSans-55" transform="translate(377.265625 0)"/>
    <use xlink:href="#DejaVuSans-50" transform="translate(416.625 0)"/>
    <use xlink:href="#DejaVuSans-3" transform="translate(514.03125 0)"/>
    <use xlink:href="#DejaVuSans-46" transform="translate(545.8125 0)"/>
    <use xlink:href="#DejaVuSans-52" transform="translate(600.796875 0)"/>
    <use xlink:href="#DejaVuSans-56" transform="translate(661.984375 0)"/>
    <use xlink:href="#DejaVuSans-57" transform="translate(714.078125 0)"/>
    <use xlink:href="#DejaVuSans-56" transform="translate(753.28125 0)"/>
    <use xlink:href="#DejaVuSans-3" transform="translate(805.375 0)"/>
    <use xlink:href="#DejaVuSans-51" transform="translate(837.15625 0)"/>
    <use xlink:href="#DejaVuSans-27" transform="translate(900.53125 0)"/>
    <use xlink:href="#DejaVuSans-26" transform="translate(977.53125 0)"/>
    <use xlink:href="#DejaVuSans-2a" transform="translate(1047.359375 0)"/>
    <use xlink:href="#DejaVuSans-3" transform="translate(1124.84375 0)"/>
    <use xlink:href="#DejaVuSans-44" transform="translate(1156.625 0)"/>
    <use xlink:href="#DejaVuSans-4a" transform="translate(1217.90625 0)"/>
    <use xlink:href="#DejaVuSans-44" transform="translate(1281.390625 0)"/>
    <use xlink:href="#DejaVuSans-4c" transform="translate(1342.671875 0)"/>
    <use xlink:href="#DejaVuSans-51" transform="translate(1370.453125 0)"/>
    <use xlink:href="#DejaVuSans-56" transform="translate(1433.828125 0)"/>
    <use xlink:href="#DejaVuSans-57" transform="translate(1485.921875 0)"/>
    <use xlink:href="#DejaVuSans-3" transform="translate(1525.125 0)"/>
    <use xlink:href="#DejaVuSans-57" transform="translate(1556.90625 0)"/>
    <use xlink:href="#DejaVuSans-4b" transform="translate(1596.109375 0)"/>
    <use xlink:href="#DejaVuSans-48" transform="translate(1659.484375 0)"/>
    <use xlink:href="#DejaVuSans-3" transform="translate(1721.015625 0)"/>
    <use xlink:href="#DejaVuSans-58" transform="translate(1752.796875 0)"/>
    <use xlink:href="#DejaVuSans-51" transform="translate(1816.171875 0)"/>
    <use xlink:href="#DejaVuSans-57" transform="translate(1879.546875 0)"/>
    <use xlink:href="#DejaVuSans-55" transform="translate(1918.75 0)"/>
    <use xlink:href="#DejaVuSans-44" transform="translate(1959.859375 0)"/>
    <use xlink:href="#DejaVuSans-51" transform="translate(2021.140625 0)"/>
    <use xlink:href="#DejaVuSans-56" transform="translate(2084.515625 0)"/>
    <use xlink:href="#DejaVuSans-49" transform="translate(2136.609375 0)"/>
    <use xlink:href="#DejaVuSans-52" transform="translate(2171.8125 0)"/>
    <use xlink:href="#DejaVuSans-55" transform="translate(2233 0)"/>
    <use xlink:href="#DejaVuSans-50" transform="translate(2272.359375 0)"/>
    <use xlink:href="#DejaVuSans-48" transform="translate(2369.765625 0)"/>
    <use xlink:href="#DejaVuSans-47" transform="translate(2431.296875 0)"/>
    <use xlink:href="#DejaVuSans-3" transform="translate(2494.78125 0)"/>
    <use xlink:href="#DejaVuSans-54" transform="translate(2526.5625 0)"/>
    <use xlink:href="#DejaVuSans-58" transform="translate(2590.046875 0)"/>
    <use xlink:href="#DejaVuSans-48" transform="translate(2653.421875 0)"/>
    <use xlink:href="#DejaVuSans-56" transform="translate(2714.953125 0)"/>
    <use xlink:href="#DejaVuSans-57" transform="translate(2767.046875 0)"/>
    <use xlink:href="#DejaVuSans-4c" transform="translate(2806.25 0)"/>
    <use xlink:href="#DejaVuSans-52" transform="translate(2834.03125 0)"/>
    <use xlink:href="#DejaVuSans-51" transform="translate(2895.21875 0)"/>
    <use xlink:href="#DejaVuSans-f" transform="translate(2958.59375 0)"/>
    <use xlink:href="#DejaVuSans-3" transform="translate(2990.375 0)"/>
    <use xlink:href="#DejaVuSans-4c" transform="translate(3022.15625 0)"/>
    <use xlink:href="#DejaVuSans-51" transform="translate(3049.9375 0)"/>
    <use xlink:href="#DejaVuSans-3" transform="translate(3113.3125 0)"/>
    <use xlink:href="#DejaVuSans-45" transform="translate(3145.09375 0)"/>
    <use xlink:href="#DejaVuSans-52" transform="translate(3208.578125 0)"/>
    <use xlink:href="#DejaVuSans-57" transform="translate(3269.765625 0)"/>
    <use xlink:href="#DejaVuSans-4b" transform="translate(3308.96875 0)"/>
    <use xlink:href="#DejaVuSans-3" transform="translate(3372.34375 0)"/>
    <use xlink:href="#DejaVuSans-55" transform="translate(3404.125 0)"/>
    <use xlink:href="#DejaVuSans-48" transform="translate(3443.03125 0)"/>
    <use xlink:href="#DejaVuSans-57" transform="translate(3504.5625 0)"/>
    <use xlink:href="#DejaVuSans-55" transform="translate(3543.765625 0)"/>
    <use xlink:href="#DejaVuSans-4c" transform="translate(3584.875 0)"/>
    <use xlink:href="#DejaVuSans-48" transform="translate(3612.65625 0)"/>
    <use xlink:href="#DejaVuSans-59" transform="translate(3674.1875 0)"/>
    <use xlink:href="#DejaVuSans-48" transform="translate(3733.375 0)"/>
    <use xlink:href="#DejaVuSans-55" transform="translate(3794.90625 0)"/>
    <use xlink:href="#DejaVuSans-56" transform="translate(3836.015625 0)"/>
    <use xlink:href="#DejaVuSans-3" transform="translate(3888.109375 0)"/>
    <use xlink:href="#DejaVuSans-44" transform="translate(3919.890625 0)"/>
    <use xlink:href="#DejaVuSans-51" transform="translate(3981.171875 0)"/>
    <use xlink:href="#DejaVuSans-47" transform="translate(4044.546875 0)"/>
    <use xlink:href="#DejaVuSans-3" transform="translate(4108.03125 0)"/>
    <use xlink:href="#DejaVuSans-44" transform="translate(4139.8125 0)"/>
    <use xlink:href="#DejaVuSans-57" transform="translate(4201.09375 0)"/>
    <use xlink:href="#DejaVuSans-3" transform="translate(4240.296875 0)"/>
    <use xlink:href="#DejaVuSans-48" transform="translate(4272.078125 0)"/>
    <use xlink:href="#DejaVuSans-59" transform="translate(4333.609375 0)"/>
    <use xlink:href="#DejaVuSans-48" transform="translate(4392.796875 0)"/>
    <use xlink:href="#DejaVuSans-55" transform="translate(4454.328125 0)"/>
    <use xlink:href="#DejaVuSans-5c" transform="translate(4495.4375 0)"/>
    <use xlink:href="#DejaVuSans-3" transform="translate(4554.625 0)"/>
    <use xlink:href="#DejaVuSans-47" transform="translate(4586.40625 0)"/>
    <use xlink:href="#DejaVuSans-48" transform="translate(4649.890625 0)"/>
    <use xlink:href="#DejaVuSans-53" transform="translate(4711.421875 0)"/>
    <use xlink:href="#DejaVuSans-57" transform="translate(4774.90625 0)"/>
    <use xlink:href="#DejaVuSans-4b" transform="translate(4814.109375 0)"/>
    <use xlink:href="#DejaVuSans-3" transform="translate(4877.484375 0)"/>
    <use xlink:href="#DejaVuSans-50" transform="translate(4909.265625 0)"/>
    <use xlink:href="#DejaVuSans-48" transform="translate(5006.671875 0)"/>
    <use xlink:href="#DejaVuSans-44" transform="translate(5068.203125 0)"/>
    <use xlink:href="#DejaVuSans-56" transform="translate(5129.484375 0)"/>
    <use xlink:href="#DejaVuSans-58" transform="translate(5181.578125 0)"/>
    <use xlink:href="#DejaVuSans-55" transform="translate(5244.953125 0)"/>
    <use xlink:href="#DejaVuSans-48" transform="translate(5283.859375 0)"/>
    <use xlink:href="#DejaVuSans-47" transform="translate(5345.390625 0)"/>
    <use xlink:href="#DejaVuSans-11" transform="translate(5408.875 0)"/>
   </g>
  </g>
  <g id="text_31">
   <!-- 100 curated questions  ·  dashed line: the question as asked  ·  ablation-c-20260907T020429Z -->
   <g style="fill: #898781" transform="translate(61.92 261.868535) scale(0.075 -0.075)">
    <defs>
     <path id="DejaVuSans-1d" d="M 750 794 
L 1409 794 
L 1409 0 
L 750 0 
L 750 794 
z
M 750 3309 
L 1409 3309 
L 1409 2516 
L 750 2516 
L 750 3309 
z
" transform="scale(0.015625)"/>
     <path id="DejaVuSans-3d" d="M 359 4666 
L 4025 4666 
L 4025 4184 
L 1075 531 
L 4097 531 
L 4097 0 
L 288 0 
L 288 481 
L 3238 4134 
L 359 4134 
L 359 4666 
z
" transform="scale(0.015625)"/>
    </defs>
    <use xlink:href="#DejaVuSans-14"/>
    <use xlink:href="#DejaVuSans-13" transform="translate(63.625 0)"/>
    <use xlink:href="#DejaVuSans-13" transform="translate(127.25 0)"/>
    <use xlink:href="#DejaVuSans-3" transform="translate(190.875 0)"/>
    <use xlink:href="#DejaVuSans-46" transform="translate(222.65625 0)"/>
    <use xlink:href="#DejaVuSans-58" transform="translate(277.640625 0)"/>
    <use xlink:href="#DejaVuSans-55" transform="translate(341.015625 0)"/>
    <use xlink:href="#DejaVuSans-44" transform="translate(382.125 0)"/>
    <use xlink:href="#DejaVuSans-57" transform="translate(443.40625 0)"/>
    <use xlink:href="#DejaVuSans-48" transform="translate(482.609375 0)"/>
    <use xlink:href="#DejaVuSans-47" transform="translate(544.140625 0)"/>
    <use xlink:href="#DejaVuSans-3" transform="translate(607.625 0)"/>
    <use xlink:href="#DejaVuSans-54" transform="translate(639.40625 0)"/>
    <use xlink:href="#DejaVuSans-58" transform="translate(702.890625 0)"/>
    <use xlink:href="#DejaVuSans-48" transform="translate(766.265625 0)"/>
    <use xlink:href="#DejaVuSans-56" transform="translate(827.796875 0)"/>
    <use xlink:href="#DejaVuSans-57" transform="translate(879.890625 0)"/>
    <use xlink:href="#DejaVuSans-4c" transform="translate(919.09375 0)"/>
    <use xlink:href="#DejaVuSans-52" transform="translate(946.875 0)"/>
    <use xlink:href="#DejaVuSans-51" transform="translate(1008.0625 0)"/>
    <use xlink:href="#DejaVuSans-56" transform="translate(1071.4375 0)"/>
    <use xlink:href="#DejaVuSans-3" transform="translate(1123.53125 0)"/>
    <use xlink:href="#DejaVuSans-3" transform="translate(1155.3125 0)"/>
    <use xlink:href="#DejaVuSans-79" transform="translate(1187.09375 0)"/>
    <use xlink:href="#DejaVuSans-3" transform="translate(1218.875 0)"/>
    <use xlink:href="#DejaVuSans-3" transform="translate(1250.65625 0)"/>
    <use xlink:href="#DejaVuSans-47" transform="translate(1282.4375 0)"/>
    <use xlink:href="#DejaVuSans-44" transform="translate(1345.921875 0)"/>
    <use xlink:href="#DejaVuSans-56" transform="translate(1407.203125 0)"/>
    <use xlink:href="#DejaVuSans-4b" transform="translate(1459.296875 0)"/>
    <use xlink:href="#DejaVuSans-48" transform="translate(1522.671875 0)"/>
    <use xlink:href="#DejaVuSans-47" transform="translate(1584.203125 0)"/>
    <use xlink:href="#DejaVuSans-3" transform="translate(1647.6875 0)"/>
    <use xlink:href="#DejaVuSans-4f" transform="translate(1679.46875 0)"/>
    <use xlink:href="#DejaVuSans-4c" transform="translate(1707.25 0)"/>
    <use xlink:href="#DejaVuSans-51" transform="translate(1735.03125 0)"/>
    <use xlink:href="#DejaVuSans-48" transform="translate(1798.40625 0)"/>
    <use xlink:href="#DejaVuSans-1d" transform="translate(1859.9375 0)"/>
    <use xlink:href="#DejaVuSans-3" transform="translate(1893.625 0)"/>
    <use xlink:href="#DejaVuSans-57" transform="translate(1925.40625 0)"/>
    <use xlink:href="#DejaVuSans-4b" transform="translate(1964.609375 0)"/>
    <use xlink:href="#DejaVuSans-48" transform="translate(2027.984375 0)"/>
    <use xlink:href="#DejaVuSans-3" transform="translate(2089.515625 0)"/>
    <use xlink:href="#DejaVuSans-54" transform="translate(2121.296875 0)"/>
    <use xlink:href="#DejaVuSans-58" transform="translate(2184.78125 0)"/>
    <use xlink:href="#DejaVuSans-48" transform="translate(2248.15625 0)"/>
    <use xlink:href="#DejaVuSans-56" transform="translate(2309.6875 0)"/>
    <use xlink:href="#DejaVuSans-57" transform="translate(2361.78125 0)"/>
    <use xlink:href="#DejaVuSans-4c" transform="translate(2400.984375 0)"/>
    <use xlink:href="#DejaVuSans-52" transform="translate(2428.765625 0)"/>
    <use xlink:href="#DejaVuSans-51" transform="translate(2489.953125 0)"/>
    <use xlink:href="#DejaVuSans-3" transform="translate(2553.328125 0)"/>
    <use xlink:href="#DejaVuSans-44" transform="translate(2585.109375 0)"/>
    <use xlink:href="#DejaVuSans-56" transform="translate(2646.390625 0)"/>
    <use xlink:href="#DejaVuSans-3" transform="translate(2698.484375 0)"/>
    <use xlink:href="#DejaVuSans-44" transform="translate(2730.265625 0)"/>
    <use xlink:href="#DejaVuSans-56" transform="translate(2791.546875 0)"/>
    <use xlink:href="#DejaVuSans-4e" transform="translate(2843.640625 0)"/>
    <use xlink:href="#DejaVuSans-48" transform="translate(2897.984375 0)"/>
    <use xlink:href="#DejaVuSans-47" transform="translate(2959.515625 0)"/>
    <use xlink:href="#DejaVuSans-3" transform="translate(3023 0)"/>
    <use xlink:href="#DejaVuSans-3" transform="translate(3054.78125 0)"/>
    <use xlink:href="#DejaVuSans-79" transform="translate(3086.5625 0)"/>
    <use xlink:href="#DejaVuSans-3" transform="translate(3118.34375 0)"/>
    <use xlink:href="#DejaVuSans-3" transform="translate(3150.125 0)"/>
    <use xlink:href="#DejaVuSans-44" transform="translate(3181.90625 0)"/>
    <use xlink:href="#DejaVuSans-45" transform="translate(3243.1875 0)"/>
    <use xlink:href="#DejaVuSans-4f" transform="translate(3306.671875 0)"/>
    <use xlink:href="#DejaVuSans-44" transform="translate(3334.453125 0)"/>
    <use xlink:href="#DejaVuSans-57" transform="translate(3395.734375 0)"/>
    <use xlink:href="#DejaVuSans-4c" transform="translate(3434.9375 0)"/>
    <use xlink:href="#DejaVuSans-52" transform="translate(3462.71875 0)"/>
    <use xlink:href="#DejaVuSans-51" transform="translate(3523.90625 0)"/>
    <use xlink:href="#DejaVuSans-10" transform="translate(3587.28125 0)"/>
    <use xlink:href="#DejaVuSans-46" transform="translate(3623.359375 0)"/>
    <use xlink:href="#DejaVuSans-10" transform="translate(3678.34375 0)"/>
    <use xlink:href="#DejaVuSans-15" transform="translate(3714.421875 0)"/>
    <use xlink:href="#DejaVuSans-13" transform="translate(3778.046875 0)"/>
    <use xlink:href="#DejaVuSans-15" transform="translate(3841.671875 0)"/>
    <use xlink:href="#DejaVuSans-19" transform="translate(3905.296875 0)"/>
    <use xlink:href="#DejaVuSans-13" transform="translate(3968.921875 0)"/>
    <use xlink:href="#DejaVuSans-1c" transform="translate(4032.546875 0)"/>
    <use xlink:href="#DejaVuSans-13" transform="translate(4096.171875 0)"/>
    <use xlink:href="#DejaVuSans-1a" transform="translate(4159.796875 0)"/>
    <use xlink:href="#DejaVuSans-37" transform="translate(4223.421875 0)"/>
    <use xlink:href="#DejaVuSans-13" transform="translate(4284.5 0)"/>
    <use xlink:href="#DejaVuSans-15" transform="translate(4348.125 0)"/>
    <use xlink:href="#DejaVuSans-13" transform="translate(4411.75 0)"/>
    <use xlink:href="#DejaVuSans-17" transform="translate(4475.375 0)"/>
    <use xlink:href="#DejaVuSans-15" transform="translate(4539 0)"/>
    <use xlink:href="#DejaVuSans-1c" transform="translate(4602.625 0)"/>
    <use xlink:href="#DejaVuSans-3d" transform="translate(4666.25 0)"/>
   </g>
  </g>
 </g>
 <defs>
  <clipPath id="p8b09de0d2b">
   <rect x="123.84" y="72" width="221.383178" height="147.6"/>
  </clipPath>
  <clipPath id="p7a7b6cad82">
   <rect x="376.216822" y="72" width="221.383178" height="147.6"/>
  </clipPath>
 </defs>
</svg>
